<?xml version="1.0" standalone="no"?>
<!DOCTYPE svg PUBLIC "-//W3C//DTD SVG 20010904//EN"
 "http://www.w3.org/TR/2001/REC-SVG-20010904/DTD/svg10.dtd">
<svg version="1.0" xmlns="http://www.w3.org/2000/svg"
 width="1536.000000pt" height="1536.000000pt" viewBox="0 0 1536.000000 1536.000000"
 preserveAspectRatio="xMidYMid meet">
<metadata>
Created by potrace 1.14, written by Peter Selinger 2001-2017
</metadata>
<g transform="translate(0.000000,1536.000000) scale(0.100000,-0.100000)"
fill="#000000" stroke="none">
<path d="M0 11741 l0 -3618 61 -7 c34 -3 88 -6 120 -6 46 0 59 -3 59 -15 0
-12 -16 -15 -80 -15 -95 0 -106 -14 -19 -24 88 -9 99 -8 99 9 0 11 11 15 40
15 30 0 40 4 40 16 0 14 2 15 17 3 15 -13 15 -14 0 -17 -12 -3 -17 -14 -17
-42 l0 -39 63 -3 62 -3 3 -44 c3 -44 -17 -81 -43 -81 -7 0 -18 -7 -25 -15 -10
-13 -9 -15 8 -15 12 0 24 -5 28 -11 4 -7 0 -9 -13 -5 -29 9 -53 -3 -53 -26 0
-17 5 -20 30 -16 17 3 30 2 30 -1 -1 -16 -18 -30 -45 -35 -23 -5 -25 -4 -10 3
19 8 18 9 -5 12 -21 3 -26 11 -31 44 l-5 40 -8 -38 c-6 -25 -4 -42 4 -52 16
-20 13 -19 -70 11 -40 14 -74 23 -77 20 -12 -11 21 -36 60 -47 22 -6 36 -14
30 -17 -6 -4 9 -8 34 -9 25 -1 49 -6 52 -10 8 -12 47 -9 93 6 21 7 43 9 50 5
7 -4 10 -3 5 1 -13 15 46 34 62 21 12 -9 13 -8 8 7 -4 10 -3 16 1 13 5 -3 24
4 43 16 65 40 101 59 105 55 2 -2 -13 -12 -33 -23 -45 -23 -47 -38 -8 -42 21
-2 26 0 16 6 -10 8 -8 13 10 26 20 14 24 14 32 1 10 -19 41 -19 61 0 20 21 32
19 54 -10 11 -14 24 -25 30 -25 6 0 13 -6 15 -12 4 -10 8 -9 17 2 9 11 13 12
17 3 6 -15 43 -17 43 -3 0 6 33 10 80 10 79 0 80 0 80 -25 0 -22 4 -25 40 -25
29 0 40 -4 40 -15 0 -12 14 -15 68 -15 38 0 61 -4 54 -8 -9 -7 -8 -13 8 -27
18 -16 23 -17 30 -5 8 13 13 11 32 -8 19 -19 21 -24 8 -32 -12 -7 -11 -12 4
-29 28 -31 36 -26 36 20 0 36 2 40 15 29 8 -7 15 -18 15 -25 0 -7 7 -18 15
-25 8 -7 15 -21 15 -31 0 -11 5 -19 10 -19 6 0 10 12 10 28 l0 27 23 -29 23
-28 13 28 c10 23 14 25 22 13 8 -11 15 -8 39 21 17 19 30 44 30 56 0 12 6 25
13 27 9 4 8 8 -3 16 -17 12 -10 23 8 12 9 -5 10 -20 3 -54 -5 -28 -5 -44 1
-41 5 3 6 -7 3 -23 -5 -27 -5 -28 5 -3 8 18 13 21 19 11 11 -18 110 395 160
669 54 295 81 454 96 560 8 63 18 125 20 137 4 16 -27 -9 -97 -78 -137 -135
-255 -242 -418 -379 -74 -62 -180 -156 -235 -209 -146 -140 -243 -219 -417
-342 -54 -37 -85 -66 -81 -73 5 -8 3 -8 -8 0 -11 9 -32 2 -98 -37 -47 -26 -88
-46 -93 -43 -4 3 47 60 115 127 122 122 175 180 206 227 9 13 25 33 36 45 11
11 31 36 45 54 14 19 44 58 68 88 24 29 65 85 91 123 l49 70 -29 74 c-31 81
-54 207 -64 356 -13 203 56 827 96 864 9 8 10 -2 6 -39 -50 -419 -23 -711 95
-1017 8 -21 17 -40 19 -43 9 -8 204 401 270 565 135 339 333 968 444 1410 20
80 60 231 90 335 29 105 69 251 89 325 72 276 256 844 341 1055 71 175 76 199
17 85 -39 -77 -310 -491 -527 -805 -242 -351 -489 -805 -619 -1135 -123 -313
-56 -69 89 326 176 478 282 724 468 1083 81 158 298 549 373 673 128 212 233
369 448 668 191 268 277 398 434 660 287 478 539 825 871 1199 42 47 69 81 61
77 -8 -4 5 11 30 35 25 23 44 47 42 53 -2 6 0 8 4 4 8 -9 34 9 34 23 0 5 -911
9 -2120 9 l-2120 0 0 -3619z m1317 -1383 c-3 -8 -6 -5 -6 6 -1 11 2 17 5 13 3
-3 4 -12 1 -19z m-557 -2318 c0 -5 -2 -10 -4 -10 -3 0 -8 5 -11 10 -3 6 -1 10
4 10 6 0 11 -4 11 -10z m-160 -140 c-13 -9 -13 -11 -1 -19 10 -7 7 -9 -12 -8
-15 1 -27 3 -27 4 0 7 34 33 43 33 7 0 6 -4 -3 -10z m-105 -80 c-3 -5 -12 -10
-18 -10 -7 0 -6 4 3 10 19 12 23 12 15 0z m-15 -34 c0 -2 -9 -6 -20 -9 -11 -3
-18 -1 -14 4 5 9 34 13 34 5z m907 -112 c-3 -3 -12 -4 -19 -1 -8 3 -5 6 6 6
11 1 17 -2 13 -5z m350 -26 c-3 -7 -5 -2 -5 12 0 14 2 19 5 13 2 -7 2 -19 0
-25z m-26 -29 c-5 -13 -10 -19 -10 -12 -1 15 10 45 15 40 3 -2 0 -15 -5 -28z
m-76 -9 c3 -5 1 -10 -4 -10 -6 0 -11 5 -11 10 0 6 2 10 4 10 3 0 8 -4 11 -10z"/>
<path d="M5145 15352 c-18 -13 -181 -206 -229 -272 -48 -64 -167 -262 -200
-330 l-17 -35 21 25 c16 20 136 190 200 284 58 85 156 196 166 188 4 -4 4 -2
1 5 -4 6 23 39 64 77 l71 66 -33 0 c-19 0 -39 -4 -44 -8z"/>
<path d="M6196 15227 c-98 -173 -205 -399 -267 -561 -27 -71 -48 -131 -46
-132 2 -2 21 40 42 94 76 193 196 431 300 592 88 138 89 140 67 140 -15 0 -39
-33 -96 -133z"/>
<path d="M9660 15355 c0 -3 8 -18 19 -33 49 -71 111 -175 151 -254 25 -48 46
-83 48 -78 2 5 -37 89 -86 187 -70 141 -93 179 -110 181 -12 2 -22 1 -22 -3z"/>
<path d="M9840 15258 c185 -394 263 -687 446 -1673 10 -55 20 -91 22 -80 6 43
-73 494 -124 705 -19 80 -53 226 -75 325 -51 230 -89 367 -143 519 -24 66 -59
163 -77 214 -33 90 -34 92 -65 92 l-33 0 49 -102z"/>
<path d="M10881 15338 c12 -24 120 -195 149 -238 9 -14 39 -67 66 -117 76
-143 74 -139 74 -122 0 8 -4 19 -9 25 -5 5 -21 40 -36 79 -25 63 -54 127 -148
328 -31 66 -32 67 -70 67 -36 0 -37 -1 -26 -22z"/>
<path d="M12900 15354 c0 -3 26 -41 58 -84 80 -110 252 -367 296 -445 32 -56
71 -123 117 -202 49 -83 153 -285 214 -418 20 -44 45 -98 55 -120 10 -22 31
-67 45 -100 15 -33 31 -69 36 -80 5 -11 11 -40 13 -65 5 -59 15 -82 33 -76 9
4 11 2 6 -7 -10 -15 -11 -77 -1 -77 4 0 10 -12 14 -27 3 -16 16 -62 29 -103
24 -79 65 -254 84 -355 6 -33 15 -139 21 -235 6 -96 15 -241 20 -321 27 -414
20 -563 -14 -287 -9 70 -23 161 -32 205 -9 43 -18 90 -21 106 -8 39 -27 48
-21 8 2 -17 1 -31 -2 -31 -9 0 0 -53 10 -60 4 -3 4 -23 1 -45 l-5 -40 -7 35
c-6 33 -6 33 -8 -12 0 -27 4 -48 9 -48 13 0 13 -147 0 -152 -8 -3 -11 -73 -11
-218 1 -19 -4 -39 -9 -44 -13 -13 -13 -46 0 -46 6 0 10 -13 10 -29 0 -23 -9
-37 -36 -58 -51 -39 -70 -39 -90 -1 -20 38 -33 52 -59 62 -15 5 -16 9 -6 15
10 7 11 13 2 30 -9 16 -18 20 -36 15 -14 -3 -25 -2 -25 2 0 17 15 32 35 36 16
4 13 8 -17 22 -21 9 -44 25 -50 36 -14 23 -34 26 -41 8 -3 -7 -6 3 -6 23 -1
19 -8 44 -17 55 -15 18 -15 17 -9 -16 9 -50 11 -58 34 -125 12 -33 42 -121 67
-195 116 -341 206 -597 259 -735 32 -82 77 -202 100 -265 48 -129 228 -588
249 -635 8 -16 17 -41 21 -55 3 -14 10 -34 15 -45 27 -64 304 -612 354 -700
135 -240 176 -315 176 -320 0 -3 12 -24 27 -48 15 -23 34 -55 43 -72 25 -47
182 -321 234 -410 76 -129 86 -144 160 -263 39 -62 82 -133 96 -157 14 -25 28
-45 33 -45 4 0 7 1625 7 3610 l0 3610 -1230 0 c-676 0 -1230 -3 -1230 -6z
m1107 -2246 c-3 -7 -5 -2 -5 12 0 14 2 19 5 13 2 -7 2 -19 0 -25z m33 -68 c12
-7 51 -152 104 -380 52 -228 96 -464 147 -790 46 -289 63 -651 55 -1140 -6
-400 -10 -460 -31 -460 -7 0 -46 64 -85 143 -135 267 -181 352 -190 355 -17 6
-11 67 19 205 78 353 102 573 101 937 -1 248 -25 538 -61 735 -23 126 -59 301
-69 335 -5 19 -9 55 -9 80 2 34 3 38 6 15 3 -16 9 -32 13 -35z m540 -2055 c0
-5 -5 -3 -10 5 -5 8 -10 20 -10 25 0 6 5 3 10 -5 5 -8 10 -19 10 -25z m109
-330 c96 -305 144 -467 184 -625 19 -74 49 -186 66 -248 66 -241 151 -675 151
-774 0 -34 -8 -17 -14 32 -13 92 -78 429 -107 549 -42 176 -192 736 -233 866
-19 61 -51 162 -71 225 -45 142 -85 278 -85 288 2 17 46 -109 109 -313z m418
-1877 c-3 -7 -5 -2 -5 12 0 14 2 19 5 13 2 -7 2 -19 0 -25z"/>
<path d="M4159 15263 c-13 -16 -12 -17 4 -4 9 7 17 15 17 17 0 8 -8 3 -21 -13z"/>
<path d="M5019 15263 c-13 -16 -12 -17 4 -4 9 7 17 15 17 17 0 8 -8 3 -21 -13z"/>
<path d="M4685 14699 c-4 -6 -5 -12 -2 -15 2 -3 7 2 10 11 7 17 1 20 -8 4z"/>
<path d="M11260 14639 c0 -4 7 -22 15 -40 8 -19 14 -27 14 -19 0 14 -28 72
-29 59z"/>
<path d="M11310 14510 c132 -330 190 -501 266 -775 144 -522 208 -814 283
-1280 58 -363 69 -445 80 -595 18 -234 33 -394 42 -435 11 -53 2 135 -17 361
-60 722 -143 1166 -360 1924 -83 287 -155 493 -262 747 -42 101 -67 143 -32
53z"/>
<path d="M5615 13588 c-9 -40 -37 -147 -61 -238 -41 -155 -69 -284 -81 -374
-4 -27 -8 -34 -14 -25 -6 10 -9 6 -9 -14 0 -16 -4 -26 -10 -22 -6 4 -10 -12
-10 -41 0 -26 -3 -45 -6 -41 -11 11 -6 73 10 120 9 26 18 61 21 79 12 73 -19
-7 -115 -302 -55 -168 -114 -340 -131 -383 -18 -43 -29 -80 -26 -83 3 -3 17
12 31 33 14 20 26 34 26 30 0 -4 -22 -40 -49 -80 -27 -39 -111 -187 -186 -327
-210 -389 -245 -443 -275 -425 -15 9 112 354 257 700 114 272 123 295 119 295
-13 0 -216 -485 -319 -760 -89 -236 -94 -248 -114 -254 -10 -2 -65 -14 -123
-26 -158 -31 -414 -113 -470 -150 -26 -17 -4 -11 72 19 105 42 264 87 406 114
102 20 122 21 122 9 0 -22 -33 -127 -161 -522 -66 -201 -131 -414 -146 -475
-14 -60 -30 -111 -35 -113 -11 -5 -10 -50 2 -54 6 -2 3 -26 -6 -62 -35 -134
-44 -221 -44 -431 0 -226 13 -299 24 -143 10 125 31 257 49 301 19 45 43 60
148 96 l84 28 -3 -204 c-3 -170 -1 -208 11 -227 11 -16 18 -62 22 -137 4 -63
17 -157 30 -209 28 -120 118 -319 186 -413 64 -88 58 -82 66 -74 7 7 -9 44
-38 87 -23 34 -27 64 -34 217 -5 105 -3 138 9 160 19 38 66 71 96 69 14 -1 31
2 38 7 18 14 133 13 159 -1 12 -7 28 -12 36 -12 8 0 18 -12 21 -26 6 -21 9
-24 21 -14 12 10 15 10 15 -2 0 -8 16 -32 35 -54 20 -21 38 -50 42 -64 3 -14
9 -29 13 -35 4 -5 10 -25 14 -44 7 -37 31 -71 51 -71 21 0 26 30 10 60 -8 16
-15 38 -15 50 0 23 53 80 75 80 8 0 15 5 15 11 0 5 4 8 9 4 5 -3 17 5 25 17
12 16 17 18 21 7 7 -20 13 -60 14 -91 1 -19 11 -32 37 -47 l37 -22 -7 -67 c-4
-37 -9 -77 -13 -89 -4 -16 -1 -23 10 -23 18 0 40 63 58 160 6 36 11 143 11
239 1 192 -5 182 56 105 29 -38 -70 155 -117 226 -47 71 -127 152 -371 374
-35 32 -65 65 -66 73 -1 8 1 13 4 11 74 -33 183 -97 255 -151 l92 -69 -77 76
c-108 106 -280 216 -483 310 -215 99 -348 170 -402 214 -24 19 -43 30 -43 25
0 -9 44 -85 85 -147 l19 -29 -29 7 c-16 4 -67 12 -113 17 -47 5 -88 12 -92 14
-20 12 152 582 221 731 33 74 131 302 148 347 l11 27 169 0 c177 0 345 -14
415 -34 l41 -12 6 -184 c6 -175 22 -325 54 -520 l14 -85 -5 75 c-18 281 -23
384 -26 532 -2 91 0 169 4 173 14 15 209 -56 271 -98 33 -22 36 -41 5 -32 -22
6 -22 5 3 -17 22 -19 109 -72 143 -87 16 -7 -39 63 -84 106 -48 47 -163 108
-276 147 l-69 25 2 311 c5 627 56 1153 168 1709 36 180 41 237 10 109z m-209
-1180 c-3 -29 -5 -253 -6 -497 l0 -444 -47 8 c-130 20 -203 26 -369 31 l-181
6 90 152 c150 253 295 483 406 644 58 83 107 152 109 152 2 0 1 -24 -2 -52z
m-145 -45 c-12 -20 -14 -14 -5 12 4 9 9 14 11 11 3 -2 0 -13 -6 -23z m-531
-910 c0 -13 -62 -164 -66 -160 -4 4 34 145 42 159 6 10 24 11 24 1z m-32
-1240 c-10 -2 -28 -2 -40 0 -13 2 -5 4 17 4 22 1 32 -1 23 -4z m166 -23 c51
-20 85 -45 74 -55 -3 -3 -31 4 -63 15 -74 25 -130 25 -180 0 -46 -24 -55 -25
-55 -6 0 8 14 16 33 19 133 24 137 25 117 37 -28 18 16 11 74 -10z m398 -417
c73 -51 152 -133 128 -133 -6 0 -9 -4 -6 -8 5 -9 -24 -95 -35 -107 -4 -3 -37
13 -74 34 -66 39 -72 40 -149 39 -45 -1 -87 1 -94 6 -24 15 -72 99 -72 126 0
29 36 68 86 93 17 9 36 23 43 31 12 14 17 13 54 -6 23 -11 77 -45 119 -75z
m43 46 c74 -42 171 -117 110 -84 -53 28 -221 138 -200 131 11 -4 52 -25 90
-47z m-502 -122 c-3 -5 0 -13 6 -17 9 -5 7 -25 -7 -78 -17 -68 -20 -73 -64
-96 l-47 -25 -7 55 c-6 49 -3 99 7 144 2 8 11 18 19 21 23 9 100 7 93 -4z
m794 -97 c55 -73 66 -90 59 -90 -5 0 -108 135 -121 160 -14 26 10 -1 62 -70z
m-282 -182 c-20 -92 -57 -127 -63 -60 -4 41 23 92 49 92 18 0 20 -4 14 -32z"/>
<path d="M10312 13455 c0 -16 2 -22 5 -12 2 9 2 23 0 30 -3 6 -5 -1 -5 -18z"/>
<path d="M8691 13212 c-7 -81 -23 -205 -36 -277 -14 -71 -38 -214 -55 -318
-53 -322 -132 -660 -230 -982 -51 -166 -80 -251 -178 -519 l-58 -160 -84 -23
c-95 -26 -232 -74 -227 -80 2 -2 24 4 48 12 54 20 228 65 247 65 10 0 12 -6 7
-17 -12 -27 -125 -357 -124 -363 1 -19 41 79 89 215 l56 160 64 9 c95 13 381
-8 520 -38 250 -53 460 -128 581 -207 63 -41 78 -56 87 -87 6 -20 34 -122 63
-227 53 -195 78 -289 105 -385 79 -281 154 -653 134 -665 -4 -3 -79 23 -166
56 -207 80 -302 104 -454 119 -136 12 -351 3 -569 -26 -140 -18 -192 -31 -293
-73 -63 -27 -136 -71 -116 -71 3 0 59 17 124 39 120 39 183 56 174 48 -3 -2
-49 -23 -102 -47 -53 -23 -103 -49 -110 -57 -11 -14 -7 -15 30 -10 41 4 42 4
26 -14 -9 -11 -23 -19 -30 -19 -7 0 -14 -3 -16 -7 -1 -5 -28 -27 -58 -50 -74
-56 -228 -203 -213 -203 7 0 38 15 70 34 76 44 179 88 280 120 96 30 210 52
219 43 4 -4 -3 -42 -14 -84 -28 -103 -62 -240 -62 -251 0 -5 14 -7 30 -4 21 3
30 0 30 -10 0 -21 -21 -38 -46 -38 -16 0 -23 -8 -28 -31 -11 -54 -6 -241 8
-319 18 -97 74 -246 117 -309 36 -53 51 -61 25 -14 -9 15 -30 52 -46 81 -17
29 -28 57 -25 62 3 4 1 20 -5 34 -5 15 -6 26 0 26 9 0 40 -56 40 -74 0 -6 9
-24 21 -41 14 -20 19 -23 15 -10 -3 11 -6 37 -8 58 -1 25 -9 44 -22 52 -43 31
-26 271 23 332 26 31 94 56 134 50 17 -3 41 -2 51 2 11 4 35 4 55 -1 20 -4 48
-10 64 -13 20 -4 27 -11 27 -29 0 -14 6 -31 13 -38 7 -7 26 -35 41 -62 26 -44
28 -53 17 -81 -18 -51 -14 -99 11 -121 21 -19 21 -19 13 1 -9 22 -18 118 -9
98 4 -10 9 -9 21 2 8 8 18 15 21 15 8 0 35 -56 38 -78 4 -23 13 -26 32 -9 10
10 24 17 30 17 6 0 19 11 27 24 10 15 25 24 42 24 14 0 30 7 35 16 12 22 40
21 36 -1 -2 -12 2 -17 12 -15 45 11 56 10 75 -2 14 -10 27 -11 38 -4 12 6 17
5 17 -4 1 -9 5 -7 14 4 19 26 27 22 15 -6 -6 -13 -20 -27 -30 -29 -14 -4 -19
-14 -19 -37 0 -28 2 -31 15 -20 13 10 15 9 15 -9 0 -11 5 -21 10 -21 6 0 10
-13 10 -29 0 -20 -8 -34 -25 -45 -16 -10 -23 -22 -18 -29 12 -20 12 -37 0 -38
-7 -1 -19 -2 -27 -3 -23 -2 -25 -44 -3 -48 14 -3 5 -16 -42 -61 -33 -32 -75
-65 -93 -74 -18 -9 -31 -18 -28 -20 2 -2 23 5 46 17 120 61 226 149 301 247
24 32 53 68 65 81 50 52 127 267 149 412 16 107 26 106 55 -7 57 -231 27 -367
-116 -519 -22 -22 -56 -53 -76 -68 -73 -52 -37 -46 80 15 118 62 185 111 216
162 9 15 22 27 29 27 6 0 26 17 44 37 18 20 35 34 38 32 6 -7 -78 -260 -119
-358 -130 -309 -417 -626 -707 -780 -44 -24 -78 -45 -76 -48 7 -7 133 64 240
134 152 101 317 278 460 493 89 135 123 205 182 370 26 74 60 171 76 215 15
44 45 141 65 215 39 138 53 166 80 156 13 -5 13 -2 -2 22 -15 27 -15 32 9 98
38 105 169 703 202 922 18 114 27 130 56 95 8 -9 39 -34 69 -56 30 -22 58 -45
62 -51 4 -6 9 -8 12 -5 3 2 -33 38 -80 79 -47 41 -90 82 -95 92 -5 10 -15 18
-20 18 -6 0 -24 10 -39 23 -27 22 -41 32 -91 65 -15 9 -71 51 -125 92 -117 88
-143 106 -289 195 -60 37 -117 74 -127 82 -10 9 -21 45 -28 101 -7 48 -17 96
-22 107 -6 15 -7 11 -3 -15 11 -78 17 -170 12 -170 -8 0 -261 133 -285 150
-16 11 -34 59 -72 190 -28 96 -69 227 -91 290 -86 243 -203 596 -284 855 -79
256 -109 371 -191 720 -19 83 -39 164 -44 180 -18 60 -30 189 -30 315 0 71 -4
131 -8 134 -5 3 -14 -61 -21 -142z m84 -733 c34 -85 126 -343 205 -574 78
-231 171 -496 205 -590 75 -203 94 -264 134 -415 16 -63 37 -134 45 -157 8
-24 14 -43 12 -43 -2 0 -35 15 -72 34 -93 45 -279 110 -424 146 -199 50 -341
71 -532 77 -134 4 -178 9 -178 19 0 7 16 54 36 106 70 183 136 376 196 573 33
110 71 236 85 280 13 44 44 157 69 250 55 211 136 456 148 452 5 -2 37 -73 71
-158z m944 -2004 c9 -9 17 -68 27 -186 7 -96 18 -228 23 -294 6 -66 14 -343
17 -615 l7 -495 53 -110 c30 -60 56 -126 59 -145 l6 -35 -25 45 c-14 25 -35
72 -47 105 -13 33 -31 71 -41 85 -14 20 -21 66 -33 225 -15 196 -28 280 -65
440 -10 44 -24 109 -30 145 -9 51 -208 865 -236 969 -6 21 7 16 132 -49 76
-40 145 -78 153 -85z m203 -113 c183 -111 343 -224 430 -305 l68 -62 -25 -146
c-13 -80 -31 -172 -40 -205 -8 -32 -35 -153 -60 -269 -46 -213 -87 -362 -93
-333 -3 16 46 265 55 281 2 4 0 7 -5 7 -5 0 -19 -33 -31 -72 -12 -40 -30 -90
-40 -112 l-18 -38 -7 28 c-4 16 -32 91 -62 167 -91 228 -231 652 -284 857 -15
59 -50 258 -50 285 0 12 24 0 162 -83z m-80 -499 c62 -185 166 -482 176 -499
11 -21 105 -271 117 -312 6 -22 5 -23 -17 -17 -54 17 -147 60 -210 97 -105 62
-116 88 -31 70 l48 -11 -25 20 c-14 10 -40 24 -57 30 l-33 11 -1 181 c-1 100
-3 234 -4 297 -3 118 2 180 14 180 4 0 14 -21 23 -47z m-863 -417 c-2 -2 -80
-6 -174 -9 -93 -3 -156 -2 -140 3 29 7 322 14 314 6z m211 -56 c5 -8 7 -17 4
-19 -8 -8 -206 -1 -223 9 -14 7 -14 9 -1 14 37 12 60 15 133 13 56 -2 80 -6
87 -17z m-425 -40 c-11 -5 -33 -9 -50 -9 -26 0 -27 2 -10 9 11 5 34 9 50 9 26
0 27 -2 10 -9z m393 -217 c12 -3 25 -9 28 -14 3 -5 29 -9 59 -9 59 0 168 -36
162 -54 -6 -18 -35 -19 -68 -2 -39 19 -104 32 -96 19 3 -5 26 -22 51 -38 38
-24 45 -32 40 -52 -4 -15 0 -31 11 -43 18 -20 13 -40 -11 -40 -8 0 -14 -9 -14
-20 0 -31 -21 -33 -100 -10 -39 12 -93 20 -118 19 -65 -3 -140 36 -187 98 -20
26 -33 53 -30 61 3 7 5 18 5 23 0 11 68 46 134 69 37 14 56 15 80 8 17 -5 41
-12 54 -15z m442 -83 c0 -5 -2 -10 -4 -10 -3 0 -8 5 -11 10 -3 6 -1 10 4 10 6
0 11 -4 11 -10z m76 -51 c4 -8 1 -8 -14 0 -12 6 -24 16 -28 22 -4 8 -1 8 14 0
12 -6 24 -16 28 -22z m492 -37 c14 -19 15 -41 3 -61 -8 -12 -22 -3 -70 44 -34
33 -61 65 -61 72 0 15 110 -31 128 -55z m-1638 -62 c0 -13 -1 -13 -10 0 -5 8
-10 22 -10 30 0 13 1 13 10 0 5 -8 10 -22 10 -30z m189 13 c-40 -47 -42 -49
-34 -33 10 19 47 60 53 60 3 0 -5 -12 -19 -27z m-123 -28 c24 -10 41 -12 53
-5 16 8 17 5 13 -16 -6 -33 -22 -39 -69 -23 -39 12 -53 24 -53 47 0 16 13 15
56 -3z m474 -93 c0 -5 -13 -21 -30 -37 -32 -31 -40 -20 -14 20 15 24 44 34 44
17z m-400 -32 c0 -5 -6 -10 -14 -10 -8 0 -16 -6 -19 -12 -2 -7 -8 -10 -12 -6
-9 8 16 37 33 38 6 0 12 -4 12 -10z m1432 -30 c-2 -16 -8 -30 -13 -30 -8 0
-13 15 -10 33 0 4 -5 7 -11 8 -7 1 -2 5 12 9 14 4 25 8 26 9 0 1 -1 -12 -4
-29z m-932 0 c0 -12 -32 -50 -42 -50 -14 0 -9 23 9 42 18 20 33 24 33 8z m-43
-163 c3 -36 3 -37 -21 -26 -22 10 -23 14 -14 41 13 38 30 31 35 -15z m358
-246 c38 -23 45 -61 11 -61 -28 0 -42 15 -51 53 -8 32 -1 33 40 8z"/>
<path d="M10327 9773 c-2 -5 -1 -19 4 -33 7 -23 7 -23 8 8 1 31 -3 40 -12 25z"/>
<path d="M10261 9404 c0 -11 3 -14 6 -6 3 7 2 16 -1 19 -3 4 -6 -2 -5 -13z"/>
<path d="M6663 12785 c4 -11 16 -81 27 -155 67 -439 172 -847 350 -1364 155
-448 373 -837 625 -1111 40 -43 44 -45 28 -17 -10 19 -46 69 -80 112 -96 122
-185 247 -239 340 -54 90 -175 334 -217 435 -45 108 -166 449 -186 520 -18 65
-137 482 -148 515 -2 8 -4 16 -5 17 0 2 -9 40 -19 85 -11 46 -33 153 -49 238
-47 251 -77 390 -85 398 -4 4 -5 -2 -2 -13z"/>
<path d="M4221 12734 c0 -11 3 -14 6 -6 3 7 2 16 -1 19 -3 4 -6 -2 -5 -13z"/>
<path d="M5216 12723 c-6 -14 -5 -15 5 -6 7 7 10 15 7 18 -3 3 -9 -2 -12 -12z"/>
<path d="M4160 12493 c-28 -120 -65 -274 -81 -343 -57 -240 -105 -528 -144
-862 -6 -56 -8 -59 -66 -104 -71 -55 -78 -68 -10 -19 26 19 51 35 55 35 9 0 7
-127 -4 -318 -5 -92 -11 -306 -13 -477 -1 -170 -5 -314 -8 -320 -4 -5 -3 -57
1 -115 6 -85 4 -108 -7 -122 -13 -14 -13 -46 -4 -217 14 -239 24 -327 57 -482
32 -153 99 -398 131 -479 45 -113 140 -297 183 -354 50 -66 63 -74 22 -13 -80
116 -118 229 -137 411 -8 78 -19 176 -25 218 -5 43 -7 85 -4 93 4 9 3 63 -1
120 -5 84 -10 105 -22 105 -12 0 -14 -11 -9 -62 l5 -63 -15 60 c-8 33 -21 74
-29 92 -8 17 -15 36 -15 42 0 6 -7 30 -15 54 -8 24 -19 89 -25 143 -5 55 -12
117 -15 139 -5 35 -1 30 38 -47 24 -48 47 -85 50 -82 3 3 5 -1 4 -8 0 -7 1
-26 2 -43 2 -23 4 -26 10 -12 4 10 10 19 13 20 10 3 82 -96 130 -176 41 -69
66 -96 55 -61 -3 10 -26 69 -52 129 -32 77 -51 138 -60 203 -8 51 -19 100 -24
110 -8 16 -41 205 -41 239 0 43 14 -8 36 -129 13 -73 30 -155 38 -183 l14 -50
1 65 c1 87 -13 177 -53 350 -19 80 -42 189 -51 243 -9 53 -20 97 -23 97 -2 0
-2 -45 1 -101 5 -98 5 -100 -16 -97 -20 3 -22 8 -19 51 2 30 -1 54 -10 64 -11
14 -11 16 1 9 10 -7 12 -2 7 20 -10 52 -26 206 -36 358 -14 224 -21 208 -23
-53 0 -53 -4 -86 -8 -75 -9 23 -11 608 -3 680 6 50 7 52 61 78 31 15 53 29 50
32 -3 3 -24 -4 -47 -16 -23 -12 -45 -19 -48 -16 -11 12 40 401 84 636 29 158
79 394 135 639 22 95 38 176 35 178 -2 2 -27 -94 -56 -214z m-203 -2070 c-3
-10 -5 -2 -5 17 0 19 2 27 5 18 2 -10 2 -26 0 -35z m-30 -803 c0 -127 -1 -142
-7 -80 -10 105 -10 291 0 260 4 -14 8 -95 7 -180z"/>
<path d="M5161 12614 c-17 -36 -31 -69 -31 -73 1 -8 39 63 57 107 24 58 6 34
-26 -34z"/>
<path d="M5115 12519 c-4 -6 -5 -12 -2 -15 2 -3 7 2 10 11 7 17 1 20 -8 4z"/>
<path d="M13461 12254 c0 -11 3 -14 6 -6 3 7 2 16 -1 19 -3 4 -6 -2 -5 -13z"/>
<path d="M6541 12202 c-1 -12 15 -100 34 -195 20 -94 45 -224 56 -287 25 -142
100 -504 129 -625 28 -115 190 -698 196 -704 7 -8 4 22 -6 53 -12 38 -62 236
-106 421 -19 76 -43 196 -54 265 -35 216 -50 286 -84 392 -35 108 -61 216 -53
224 2 3 26 -50 52 -116 26 -67 49 -119 51 -117 3 2 -16 57 -42 122 -25 65 -70
213 -99 329 -29 116 -58 222 -63 236 -11 24 -11 25 -11 2z"/>
<path d="M12481 12085 c-1 -11 8 -74 18 -140 40 -243 121 -846 140 -1040 61
-608 61 -1605 0 -2105 -41 -341 -140 -861 -213 -1125 -53 -194 -138 -474 -171
-570 -13 -38 -38 -126 -55 -195 -16 -69 -38 -150 -48 -181 -22 -70 -91 -189
-110 -189 -9 0 -12 6 -8 16 3 9 9 28 13 42 3 15 43 140 89 277 104 316 125
423 209 1075 23 179 46 474 44 555 -1 22 -9 -21 -19 -95 -10 -74 -25 -191 -34
-260 -21 -159 -63 -390 -82 -455 -8 -27 -37 -144 -64 -260 -65 -270 -196 -661
-291 -865 -64 -139 -263 -512 -339 -635 -52 -86 -169 -262 -192 -290 -9 -11
-52 -66 -95 -122 -113 -147 -286 -356 -367 -443 -396 -423 -764 -734 -1124
-947 -142 -84 -415 -222 -391 -198 3 3 62 43 130 89 269 180 312 212 375 279
36 38 63 72 60 74 -5 5 -22 -6 -152 -102 -45 -33 -113 -82 -151 -108 -37 -26
-120 -86 -183 -132 -63 -46 -228 -161 -366 -254 -139 -94 -280 -193 -315 -221
-181 -146 -556 -555 -697 -762 -47 -69 -88 -171 -111 -276 -23 -105 -29 -118
-79 -175 -20 -23 36 28 124 113 280 271 509 422 1024 675 477 235 543 269 548
283 2 6 -32 0 -80 -13 -46 -14 -157 -43 -246 -65 -223 -55 -305 -89 -404 -163
-44 -34 -91 -69 -103 -77 -37 -25 -95 -79 -95 -88 0 -4 -13 -21 -30 -37 -40
-38 -39 -21 4 98 40 111 60 152 117 238 165 248 307 401 451 485 133 77 575
297 668 333 47 18 103 41 126 52 23 10 45 19 49 19 4 0 49 16 99 36 94 38 199
101 338 205 45 33 83 57 85 55 7 -6 -147 -317 -198 -401 -64 -106 -188 -277
-289 -400 -50 -60 -128 -155 -173 -210 -45 -54 -127 -151 -182 -215 -95 -109
-248 -294 -307 -370 -15 -19 -55 -70 -89 -114 -33 -43 -56 -75 -49 -71 6 4 38
41 71 83 33 43 82 100 108 127 46 48 64 69 191 215 30 35 60 68 65 74 175 192
291 333 482 583 30 40 59 70 64 67 5 -3 6 2 3 11 -4 9 -2 15 3 13 9 -3 249
291 324 397 29 41 136 208 192 300 7 11 26 42 43 70 16 27 33 57 37 65 4 8 17
31 29 52 13 20 38 62 57 95 32 54 109 176 171 268 15 22 30 47 33 55 4 8 16
29 27 45 11 17 24 41 30 54 6 13 19 35 29 50 10 14 37 62 61 106 23 44 53 94
66 111 13 17 24 34 24 38 0 4 54 89 120 188 66 99 120 185 121 191 0 7 4 3 8
-8 9 -21 5 -439 -5 -490 -3 -16 -7 -64 -10 -105 -3 -41 -11 -120 -19 -175 -8
-55 -17 -127 -20 -160 -4 -33 -13 -87 -20 -120 -7 -33 -16 -91 -19 -130 -4
-38 -11 -86 -16 -105 -5 -19 -16 -87 -25 -150 -48 -328 -123 -608 -230 -850
-89 -203 -164 -351 -219 -435 -10 -15 -16 -29 -13 -31 3 -3 30 35 61 83 70
109 198 368 260 527 120 304 256 884 276 1176 25 368 58 642 80 664 18 18 -6
-256 -46 -524 -20 -131 -27 -207 -17 -193 13 19 6 -262 -11 -432 -9 -88 -19
-261 -22 -385 -4 -199 -13 -399 -30 -640 -2 -41 -9 -151 -14 -245 -5 -93 -16
-195 -24 -225 -8 -30 -17 -91 -21 -135 -6 -70 -26 -196 -65 -395 -22 -116 -81
-330 -114 -416 -78 -206 -171 -363 -341 -574 -146 -181 -277 -297 -500 -441
-209 -135 -220 -145 -423 -415 -222 -295 -437 -548 -514 -604 -21 -15 -34 -30
-31 -34 9 -9 283 -8 283 2 0 4 10 12 23 18 19 9 230 119 322 168 17 8 68 32
115 52 47 19 99 42 115 49 17 8 39 13 50 12 11 -1 19 3 17 11 -2 12 10 16 20
6 10 -9 -17 -52 -45 -75 -24 -18 -26 -18 -20 -2 6 16 5 16 -10 4 -9 -7 -14
-18 -11 -23 4 -6 -3 -5 -15 1 -15 9 -26 9 -39 1 -15 -9 -14 -10 6 -5 12 4 22
2 22 -3 0 -5 -10 -14 -22 -21 -19 -10 -19 -11 -3 -6 14 3 10 -4 -15 -25 -19
-17 -40 -28 -47 -26 -7 3 -12 2 -12 -2 3 -19 -2 -25 -11 -12 -9 13 -10 13 -10
0 0 -19 -29 -45 -97 -86 -29 -17 -50 -34 -46 -38 3 -3 351 -6 772 -6 l767 0
59 77 c62 81 74 96 140 173 22 26 60 71 85 100 25 29 55 65 68 79 110 124 260
351 246 373 -3 4 2 34 11 67 19 76 19 95 -1 87 -8 -3 -12 -2 -9 3 8 14 -16 61
-32 61 -7 0 -13 6 -13 14 0 8 -9 18 -20 21 -11 3 -27 13 -35 21 -11 11 -19 12
-34 4 -11 -5 -29 -10 -41 -10 -19 0 -75 -25 -90 -40 -3 -3 -21 -14 -40 -24
-101 -56 -171 -126 -317 -321 -46 -61 -95 -125 -110 -144 -16 -19 -31 -42 -35
-52 -12 -32 -29 -22 -23 14 3 17 12 77 20 132 28 203 55 380 60 393 5 14 31
242 33 290 1 17 -2 32 -7 32 -4 0 -24 -24 -44 -52 -20 -29 -53 -75 -75 -103
-54 -69 -321 -430 -356 -483 -34 -50 -50 -63 -37 -30 112 283 259 557 405 754
17 23 37 50 44 60 142 208 282 379 282 346 0 -12 -4 -22 -34 -79 -9 -17 -16
-39 -16 -50 0 -22 70 82 124 186 21 41 61 113 89 160 27 47 57 100 66 116 9
17 19 32 24 33 4 2 7 8 7 14 0 9 27 45 94 124 15 19 23 34 18 34 -6 0 -12 -4
-14 -9 -1 -5 -43 -53 -93 -107 -49 -53 -139 -159 -200 -234 -60 -76 -123 -155
-140 -175 -16 -21 -34 -44 -39 -53 -5 -8 -14 -22 -22 -31 -147 -179 -196 -241
-214 -271 -5 -8 -12 -11 -16 -8 -7 8 66 147 134 254 99 154 265 374 358 474
24 25 63 68 89 95 183 197 407 411 544 521 13 10 31 26 40 34 16 14 143 115
293 231 40 31 90 66 110 77 20 12 61 37 92 57 30 20 62 35 71 33 16 -3 -10
-25 -159 -133 -23 -16 -52 -40 -66 -53 -14 -13 -78 -69 -144 -125 -140 -121
-244 -217 -234 -217 4 0 13 6 20 13 43 43 217 172 298 222 52 32 97 61 100 64
6 7 31 22 129 73 42 22 88 49 102 59 15 10 34 19 43 19 9 0 16 5 16 10 0 6 5
10 10 10 6 0 29 9 53 20 50 23 129 51 133 47 8 -8 5 -98 -5 -137 -6 -25 -14
-56 -17 -70 -3 -13 -9 -29 -13 -35 -11 -12 -39 -109 -46 -158 -5 -28 0 -47 20
-83 14 -25 32 -53 40 -61 8 -8 15 -21 15 -28 0 -7 6 -20 14 -27 7 -8 21 -27
30 -43 9 -17 21 -37 26 -45 27 -43 59 -131 66 -180 10 -72 5 -202 -8 -217 -6
-7 -8 -18 -6 -25 8 -20 -7 -53 -23 -53 -9 0 -15 -12 -15 -30 -1 -17 -12 -55
-24 -85 -12 -30 -23 -64 -24 -75 -3 -34 -17 -68 -46 -110 -15 -22 -30 -52 -34
-67 -3 -15 -17 -38 -31 -52 -14 -14 -25 -32 -25 -42 0 -9 -8 -28 -18 -42 -10
-15 -24 -42 -31 -59 -8 -18 -17 -33 -22 -33 -5 0 -9 -23 -9 -51 0 -43 -4 -54
-25 -71 -14 -11 -25 -25 -25 -33 0 -7 -7 -18 -15 -25 -8 -7 -15 -23 -15 -36 0
-13 -4 -24 -9 -24 -19 0 -71 -62 -71 -85 0 -15 -7 -26 -20 -30 -14 -4 -24 -22
-32 -51 -7 -24 -16 -44 -20 -44 -4 0 -8 -11 -8 -24 0 -24 -51 -86 -71 -86 -5
0 -9 -5 -9 -11 0 -6 -11 -20 -25 -31 -14 -11 -25 -26 -25 -33 0 -8 -26 -40
-57 -73 -32 -32 -76 -78 -98 -103 -22 -24 -57 -57 -77 -72 -33 -24 -38 -34
-38 -67 0 -30 -5 -40 -19 -45 -11 -3 -23 -15 -26 -26 -7 -21 -30 -26 -39 -6
-5 9 -8 8 -13 -3 -3 -8 -19 -28 -35 -43 -15 -16 -28 -37 -28 -47 0 -12 -14
-23 -40 -34 -31 -12 -40 -21 -40 -40 0 -19 -8 -28 -35 -37 -19 -7 -37 -21 -40
-30 -3 -9 -28 -38 -55 -63 -28 -26 -50 -50 -50 -54 0 -4 -14 -21 -30 -39 -17
-18 -30 -39 -30 -47 0 -9 -3 -16 -8 -16 -4 0 -13 -9 -20 -20 -12 -20 -10 -20
1248 -20 1259 0 1260 0 1260 20 0 11 -16 69 -36 128 -96 292 -115 364 -113
445 1 42 3 77 4 77 1 0 25 -35 54 -77 28 -43 130 -190 226 -328 96 -137 175
-253 175 -257 0 -5 92 -8 205 -8 l205 0 0 206 0 205 -45 71 c-25 38 -76 113
-113 166 -38 53 -77 113 -87 132 -11 19 -22 37 -25 40 -8 8 -90 130 -90 135 0
2 -23 40 -50 85 -27 45 -50 83 -50 86 0 2 -15 27 -34 56 -55 87 -192 359 -249
496 -94 223 -138 373 -172 582 -9 52 -28 153 -44 225 -16 71 -26 135 -24 142
3 7 1 13 -5 13 -5 0 -12 19 -16 42 -4 23 -23 96 -43 162 -20 67 -40 139 -46
161 -5 22 -18 57 -29 78 -11 20 -17 37 -14 37 11 0 -127 266 -173 333 -86 125
-190 213 -331 280 -52 25 -107 49 -122 52 -16 4 -25 12 -21 18 3 6 1 7 -6 3
-16 -10 -83 13 -75 26 5 7 0 9 -14 6 -12 -4 -20 -2 -17 2 3 5 -8 8 -23 8 -39
-1 -59 11 -41 24 9 6 2 7 -20 3 -23 -5 -31 -4 -27 4 4 6 -4 13 -19 17 -14 3
-25 10 -25 14 0 4 -13 13 -29 19 -38 16 -189 164 -277 271 -198 241 -243 311
-366 560 -39 80 -75 147 -80 148 -4 2 -8 8 -8 14 0 6 -18 47 -39 92 -54 111
-65 138 -97 236 -15 47 -38 108 -50 135 -13 28 -30 77 -39 110 -9 33 -19 67
-22 75 -4 8 -8 31 -10 50 -3 19 -10 42 -18 50 -7 8 -21 59 -31 113 -10 53 -22
97 -26 97 -5 0 -8 13 -8 28 0 15 -7 54 -15 86 -17 64 -25 146 -14 146 4 0 10
-20 13 -45 4 -25 11 -45 17 -45 5 0 9 -11 9 -24 0 -14 7 -31 15 -40 8 -8 15
-23 15 -33 0 -10 7 -27 15 -37 8 -11 15 -28 15 -39 0 -24 26 -107 56 -180 13
-32 24 -62 24 -67 0 -5 11 -33 24 -62 13 -29 27 -64 30 -78 8 -28 48 -122 56
-130 3 -3 6 -15 8 -27 2 -13 28 -72 58 -133 69 -138 88 -154 64 -55 -6 22 -15
63 -21 90 -6 28 -15 68 -20 90 -9 38 -25 159 -49 375 -6 52 -12 111 -15 130
-33 265 -42 581 -18 624 13 23 16 18 42 -67 11 -38 36 -101 55 -140 18 -40 44
-94 56 -122 39 -87 118 -242 144 -284 14 -22 26 -44 26 -49 0 -5 18 -34 40
-66 22 -31 47 -71 56 -89 9 -18 29 -46 43 -63 40 -47 95 -128 93 -136 -1 -5 3
-8 8 -8 6 0 14 -8 18 -17 8 -19 63 -105 73 -113 6 -5 112 -145 139 -184 8 -11
30 -41 48 -65 17 -24 32 -48 32 -52 0 -4 15 -24 33 -44 19 -21 49 -62 68 -93
19 -31 49 -72 66 -92 18 -19 33 -42 33 -50 0 -8 11 -27 25 -42 14 -15 25 -32
25 -38 0 -5 3 -10 8 -10 4 0 13 -12 19 -27 7 -16 25 -41 40 -57 28 -30 93
-122 93 -131 0 -12 35 -43 43 -38 13 8 27 -17 27 -52 0 -23 3 -27 10 -15 6 10
10 11 10 3 0 -7 16 -30 35 -50 19 -20 35 -45 35 -56 0 -10 4 -16 9 -12 12 7
31 -26 31 -53 0 -11 6 -25 14 -31 8 -7 17 -23 20 -36 3 -13 17 -36 31 -51 25
-27 26 -27 40 -8 13 17 12 21 -7 37 -17 14 -19 20 -9 27 16 9 6 30 -15 30 -8
0 -15 6 -15 13 -1 6 -3 21 -4 32 -1 11 -4 36 -6 55 -2 19 -12 43 -22 53 -9 9
-17 30 -16 45 1 15 -21 106 -49 202 -63 217 -80 298 -89 422 l-6 98 32 6 c17
4 31 12 31 18 -1 25 -112 317 -140 368 -12 22 -37 138 -44 208 -5 49 -3 58 17
75 26 23 54 31 37 10 -7 -8 -7 -15 -1 -19 5 -3 11 0 14 6 3 10 9 8 24 -4 11
-10 23 -18 27 -18 4 0 18 -11 31 -24 13 -13 32 -30 42 -38 10 -7 24 -25 30
-40 14 -30 39 -39 29 -10 -5 14 -4 14 9 -2 8 -11 15 -23 15 -28 0 -4 7 -8 16
-8 10 0 13 -6 10 -18 -6 -19 13 -33 62 -47 12 -4 22 -11 22 -16 0 -6 -5 -7
-12 -3 -7 4 -8 3 -4 -4 4 -7 16 -12 28 -12 14 0 18 -5 14 -15 -6 -16 31 -38
46 -28 4 2 5 -4 1 -13 -4 -12 -3 -15 5 -10 7 4 10 2 7 -6 -5 -14 38 -68 55
-68 5 0 10 -6 10 -14 0 -8 9 -24 21 -37 l20 -24 -3 37 c-2 20 0 34 4 32 12 -8
9 11 -4 24 -7 7 -8 12 -2 12 10 0 42 -25 119 -95 96 -87 114 -101 141 -115 51
-26 84 -51 79 -61 -4 -5 1 -9 9 -9 9 0 16 -5 16 -10 0 -6 6 -9 13 -8 6 2 11
-2 10 -9 -2 -8 4 -10 14 -6 10 4 14 2 10 -4 -3 -5 13 -20 36 -33 23 -13 53
-32 66 -44 13 -12 21 -15 17 -8 -8 13 134 -82 167 -112 9 -9 21 -16 25 -16 5
0 18 -9 30 -20 12 -12 22 -18 22 -15 0 8 62 -35 72 -50 4 -5 8 -6 8 -2 0 5 12
0 28 -11 37 -26 173 -92 189 -92 17 0 17 37 1 43 -10 4 -10 6 0 6 18 1 15 31
-5 54 -17 19 -17 20 0 14 15 -6 17 2 17 72 0 54 -4 81 -12 84 -10 4 -10 6 0 6
6 1 12 5 12 11 0 5 -6 7 -14 4 -8 -3 -17 3 -20 14 -4 11 -21 31 -39 45 -63 49
-357 349 -408 417 -15 19 -42 51 -60 70 -18 19 -31 37 -30 38 5 6 -80 103
-131 152 -27 24 -48 50 -48 57 0 8 -6 16 -14 19 -8 3 -17 17 -21 31 -3 14 -9
23 -12 20 -7 -8 -44 47 -62 90 -7 18 -17 30 -22 27 -5 -3 -9 7 -9 21 0 25 -3
27 -27 20 -16 -4 -25 -4 -21 0 9 10 -12 66 -23 59 -5 -3 -9 2 -9 10 0 9 -4 16
-10 16 -5 0 -19 18 -30 39 -14 29 -16 41 -7 44 8 3 3 13 -14 28 -23 22 -24 28
-16 67 6 32 12 42 23 38 8 -3 14 1 14 9 0 21 -30 7 -40 -19 l-9 -21 -7 23 c-3
12 -10 22 -14 22 -13 0 -4 34 10 38 9 3 11 -2 7 -17 -6 -25 11 -28 20 -3 4 9
17 25 30 35 17 14 21 25 17 43 -5 20 -2 24 15 24 17 0 21 -6 21 -30 l0 -30 79
0 c54 0 81 4 84 13 4 9 6 9 6 0 1 -8 15 -13 36 -13 19 0 35 -4 35 -10 0 -5 18
-10 40 -10 l40 0 0 40 0 40 200 0 c171 0 200 -2 200 -15 0 -11 -11 -15 -40
-15 -29 0 -40 -4 -40 -15 0 -13 24 -15 160 -15 l160 0 0 264 0 263 -72 49
c-40 27 -77 51 -82 53 -10 4 -214 139 -231 153 -5 4 -39 29 -75 55 -80 57
-156 114 -229 171 -31 24 -72 56 -92 71 -31 23 -119 96 -153 126 -6 6 -36 30
-66 55 -30 24 -68 56 -84 70 -50 43 -306 302 -306 310 0 4 -21 27 -47 52 -47
44 -172 179 -230 248 -16 19 -41 48 -54 64 -13 15 -36 42 -51 60 -15 17 -28
34 -28 38 0 3 -16 25 -35 48 -38 46 -48 37 -13 -13 51 -75 287 -372 343 -433
6 -6 30 -35 55 -64 66 -78 199 -213 325 -327 213 -194 300 -284 297 -306 -3
-15 0 -18 13 -14 9 4 14 3 10 -3 -3 -6 -1 -10 4 -10 6 0 11 -5 11 -11 0 -8 -4
-8 -15 1 -8 6 -20 8 -26 4 -7 -4 -9 -3 -6 2 3 6 -8 16 -24 23 -17 7 -26 17
-22 24 3 7 3 9 -2 5 -7 -7 -59 23 -80 46 -5 6 -30 27 -55 46 -47 35 -174 143
-200 170 -8 8 -51 47 -95 85 -186 163 -375 363 -561 595 -55 69 -154 206 -154
214 0 2 -32 62 -72 132 -60 109 -160 310 -232 467 -10 21 -35 86 -57 144 -39
103 -76 195 -103 258 -21 47 -73 195 -90 255 -18 63 -32 183 -46 389 -41 606
-99 1116 -201 1756 -21 133 -47 246 -48 210z m284 -3287 c58 -140 170 -359
248 -488 38 -63 83 -140 100 -170 16 -30 44 -80 62 -110 52 -88 132 -235 178
-325 11 -22 39 -69 62 -105 23 -36 74 -126 112 -200 109 -207 154 -292 178
-330 12 -19 37 -62 55 -95 18 -33 34 -62 36 -64 2 -2 13 4 24 14 11 10 20 13
20 7 0 -6 3 -18 7 -28 5 -13 3 -15 -8 -10 -11 6 -10 4 1 -6 15 -13 32 -42 75
-128 12 -25 56 -112 97 -195 42 -82 114 -214 161 -291 47 -78 95 -159 107
-180 11 -22 37 -66 56 -98 19 -32 33 -61 31 -63 -11 -10 -139 163 -216 292
-32 52 -74 105 -85 105 -5 0 24 -70 34 -80 14 -14 50 -90 43 -90 -4 0 -1 -4 7
-10 8 -5 11 -12 7 -16 -8 -8 -66 31 -169 113 -45 35 -68 49 -68 38 0 -8 5 -15
10 -15 6 0 10 -7 10 -15 0 -8 9 -23 20 -32 11 -10 20 -23 20 -30 0 -7 9 -18
20 -25 11 -7 20 -17 20 -23 0 -6 15 -24 33 -40 17 -17 40 -42 50 -57 27 -42
73 -92 192 -210 270 -266 375 -372 375 -380 0 -4 8 -17 18 -27 52 -57 62 -70
62 -80 0 -6 7 -11 16 -11 11 0 15 -8 12 -27 -2 -17 2 -27 9 -26 6 1 17 -4 23
-12 7 -8 19 -15 26 -15 8 0 14 -8 14 -19 0 -10 7 -24 15 -31 8 -7 15 -18 15
-24 0 -11 37 -40 53 -41 4 0 12 -6 16 -14 5 -8 14 -10 22 -5 12 6 12 5 1 -8
-12 -15 -8 -21 30 -48 l43 -32 -35 6 -35 7 33 -15 c21 -10 32 -22 32 -36 0
-12 4 -18 10 -15 5 3 16 -9 23 -27 16 -37 43 -64 69 -69 12 -3 15 -8 8 -18 -7
-12 -11 -12 -23 -2 -13 10 -15 7 -13 -17 l2 -28 -37 18 c-21 10 -45 15 -53 12
-9 -3 -25 5 -39 20 -13 14 -30 26 -37 26 -10 0 -9 4 1 17 13 15 12 15 -6 6
-23 -12 -45 -7 -45 10 0 8 3 8 11 0 9 -9 15 -8 26 3 8 8 19 12 24 9 5 -4 9 -1
9 5 0 8 -7 9 -17 5 -29 -12 -74 -15 -68 -6 3 5 1 12 -5 16 -6 4 -8 10 -5 15 7
12 -5 40 -17 40 -6 0 -4 -7 3 -17 11 -13 11 -17 1 -21 -10 -3 -10 -7 0 -20 10
-11 6 -11 -16 3 -26 17 -27 20 -10 27 16 7 15 8 -4 4 -27 -5 -95 31 -86 45 3
6 -2 21 -11 36 -14 21 -22 24 -48 20 l-32 -6 30 15 c29 14 29 15 3 9 -20 -4
-33 2 -57 26 -19 18 -38 29 -46 25 -10 -3 -15 1 -15 12 0 12 -3 13 -8 5 -10
-17 -95 44 -88 62 2 7 -3 12 -12 11 -9 0 -16 4 -15 11 2 7 -4 10 -12 7 -9 -4
-35 14 -67 45 -29 28 -57 51 -63 51 -6 0 -24 18 -41 40 -16 21 -41 44 -56 49
-16 6 -28 15 -28 20 0 6 -11 13 -25 17 -14 3 -22 10 -19 15 3 5 0 9 -6 9 -16
0 -138 103 -139 118 -1 7 -6 10 -11 7 -6 -4 -30 13 -54 37 -59 59 -125 118
-132 118 -3 0 -31 26 -63 58 -31 31 -90 86 -130 122 -122 109 -460 456 -461
472 0 4 -8 15 -19 25 -68 65 -228 290 -281 393 -24 47 -53 101 -65 120 -67
108 -125 306 -151 511 -21 169 -14 496 16 774 11 105 25 237 30 295 14 152 41
330 50 325 4 -2 24 -46 45 -97z m1216 -1284 c4 -32 7 -100 8 -150 1 -117 17
-275 38 -384 17 -90 27 -330 14 -330 -10 0 -122 192 -141 240 -7 19 -19 42
-26 50 -7 8 -13 17 -13 20 0 7 -20 51 -36 80 -25 43 -18 134 23 290 40 154 88
256 116 247 6 -2 14 -30 17 -63z m547 -1164 c22 0 32 -5 32 -15 0 -12 -14 -15
-65 -15 -36 0 -65 4 -65 8 0 17 26 33 45 28 11 -3 35 -6 53 -6z m752 -15 c0
-11 -11 -15 -40 -15 -29 0 -40 4 -40 15 0 11 11 15 40 15 29 0 40 -4 40 -15z
m-3103 -167 c-3 -8 -6 -5 -6 6 -1 11 2 17 5 13 3 -3 4 -12 1 -19z m2110 -10
c-3 -8 -6 -5 -6 6 -1 11 2 17 5 13 3 -3 4 -12 1 -19z m-2086 -936 c5 -2 9 -10
9 -18 0 -8 4 -14 9 -14 5 0 12 -9 16 -19 3 -11 15 -23 26 -26 12 -4 19 -15 19
-31 0 -27 12 -31 30 -9 10 12 10 15 0 15 -10 0 -10 3 0 15 20 24 27 18 27 -23
0 -22 6 -47 12 -58 10 -16 11 -12 7 26 l-6 45 16 -35 c9 -19 17 -48 20 -64 5
-40 14 -46 15 -10 1 26 2 25 10 -11 5 -21 13 -42 17 -45 17 -11 52 -69 52 -84
0 -9 5 -16 10 -16 6 0 10 -9 10 -19 0 -11 7 -26 15 -35 8 -8 19 -25 25 -38 5
-13 35 -63 65 -112 30 -49 55 -92 55 -95 0 -7 83 -139 98 -157 5 -6 29 -46 52
-90 24 -43 55 -95 69 -114 14 -19 27 -37 27 -40 10 -36 19 -50 30 -50 8 0 14
-4 14 -10 0 -15 -3 -13 -43 19 -20 15 -33 32 -29 36 4 5 2 5 -4 2 -5 -3 -46
28 -90 69 -43 42 -137 127 -209 189 -135 118 -269 245 -295 280 -8 11 -22 36
-31 55 -9 19 -26 53 -37 75 -112 218 -127 266 -118 395 4 52 9 112 13 133 l6
38 39 -83 c22 -46 44 -84 49 -86z m-170 -177 c-8 -58 -9 -59 -10 -15 0 25 2
56 6 70 11 41 13 9 4 -55z m2686 25 c1 -16 -1 -17 -12 -7 -7 6 -11 15 -8 20 8
13 19 7 20 -13z m-2817 -106 c11 -29 3 -54 -11 -33 -9 15 -12 59 -4 59 3 0 10
-12 15 -26z m3350 -144 c0 -5 -4 -10 -10 -10 -5 0 -10 5 -10 10 0 6 5 10 10
10 6 0 10 -4 10 -10z m80 -130 c0 -5 -4 -10 -10 -10 -5 0 -10 5 -10 10 0 6 5
10 10 10 6 0 10 -4 10 -10z m-5 -30 c3 -6 -1 -7 -9 -4 -18 7 -21 14 -7 14 6 0
13 -4 16 -10z m-3418 -412 c-3 -8 -6 -5 -6 6 -1 11 2 17 5 13 3 -3 4 -12 1
-19z m20 -48 c-2 -44 -27 -58 -27 -15 0 20 15 52 27 55 0 0 0 -18 0 -40z
m2073 -56 c0 -14 -3 -14 -15 -4 -8 7 -15 14 -15 16 0 2 7 4 15 4 8 0 15 -7 15
-16z m-2110 -69 c-9 -30 -9 -30 -7 7 0 21 5 34 9 30 4 -4 3 -21 -2 -37z m-55
-340 c-31 -127 -76 -288 -100 -360 -43 -129 -120 -321 -136 -340 -19 -20 -7
25 47 180 79 225 111 339 139 495 37 202 41 217 57 242 9 13 19 39 24 58 l8
35 9 -40 c7 -34 0 -76 -48 -270z m62 283 c-3 -8 -6 -5 -6 6 -1 11 2 17 5 13 3
-3 4 -12 1 -19z m1083 -701 c0 -15 -86 -99 -190 -187 -36 -30 -87 -75 -115
-100 -27 -26 -86 -79 -130 -120 -188 -172 -484 -474 -570 -581 -51 -63 -99
-122 -106 -130 -70 -73 -228 -279 -319 -414 -30 -44 -109 -190 -176 -325 -67
-135 -145 -285 -174 -335 -29 -49 -90 -157 -137 -238 -46 -82 -101 -176 -123
-210 l-40 -62 0 34 c0 55 123 401 230 646 81 186 187 451 195 487 4 18 12 39
17 46 6 6 7 12 4 12 -4 0 0 10 8 22 9 12 16 28 16 35 0 7 13 41 29 75 16 35
32 80 36 102 3 21 10 46 14 55 15 29 33 85 36 111 2 14 9 54 15 90 7 36 12 73
13 83 1 9 4 17 8 17 3 0 9 26 13 58 8 69 41 207 58 242 17 36 49 70 60 64 5
-3 7 -2 6 3 -3 8 88 94 143 136 44 34 237 167 242 167 3 0 31 15 64 33 153 86
431 160 698 186 141 13 175 13 175 -2z m-1550 -1847 c0 -5 -5 -10 -11 -10 -5
0 -7 5 -4 10 3 6 8 10 11 10 2 0 4 -4 4 -10z"/>
<path d="M14751 5036 c2 -2 15 -9 29 -15 24 -11 24 -11 6 3 -16 13 -49 24 -35
12z"/>
<path d="M14990 4900 c0 -16 3 -30 8 -31 58 -7 103 -5 88 3 -9 5 -31 8 -49 6
-30 -3 -32 -1 -29 25 1 15 -2 27 -8 27 -5 0 -10 -13 -10 -30z"/>
<path d="M12340 5011 c0 -6 5 -13 10 -16 6 -3 10 1 10 9 0 9 -4 16 -10 16 -5
0 -10 -4 -10 -9z"/>
<path d="M5721 10585 c-1 -452 9 -631 49 -916 11 -80 27 -165 35 -190 l15 -44
-5 55 c-2 30 -11 117 -20 193 -28 261 -37 419 -29 557 5 99 9 127 16 105 77
-279 122 -422 173 -544 72 -174 76 -183 81 -179 3 4 -34 118 -90 274 -40 111
-133 457 -171 634 -7 36 -19 144 -25 240 -20 312 -28 262 -29 -185z"/>
<path d="M7180 10734 c0 -6 28 -58 63 -116 83 -143 228 -321 408 -503 l148
-150 -15 -50 c-8 -27 -38 -113 -66 -190 -62 -174 -67 -193 -33 -130 27 48 105
267 120 333 3 17 10 32 13 32 7 -1 42 -27 167 -128 42 -35 80 -61 83 -58 8 9
-118 129 -205 194 -45 34 -85 67 -88 72 -4 6 -31 29 -62 51 -88 65 -208 197
-357 393 -21 28 -42 53 -46 56 -3 3 -33 48 -64 100 -66 107 -66 107 -66 94z"/>
<path d="M7977 10517 c-24 -37 -46 -110 -88 -292 -22 -93 -42 -178 -45 -189
-4 -11 -2 -16 4 -13 10 7 27 64 67 237 15 63 37 135 49 160 20 39 41 120 32
120 -2 0 -10 -10 -19 -23z"/>
<path d="M6966 10367 c3 -10 9 -15 12 -12 3 3 0 11 -7 18 -10 9 -11 8 -5 -6z"/>
<path d="M5210 10361 c0 -6 9 -11 20 -11 11 0 20 -5 20 -11 0 -6 7 -8 16 -5 8
3 13 2 10 -3 -7 -10 111 -78 135 -78 8 0 37 -14 62 -32 26 -17 47 -28 47 -24
-1 13 -70 58 -170 111 -108 56 -140 68 -140 53z"/>
<path d="M7361 10133 c-1 -29 21 -149 99 -548 22 -109 49 -209 56 -202 3 2 0
24 -5 47 -12 55 -4 101 62 338 50 177 62 233 36 165 -5 -16 -35 -90 -66 -166
-55 -136 -72 -154 -73 -82 -1 17 -10 62 -21 100 -16 61 -51 211 -78 340 -9 39
-9 39 -10 8z"/>
<path d="M3634 10038 c15 -10 218 -10 234 1 7 4 -44 7 -116 7 -71 -1 -125 -4
-118 -8z"/>
<path d="M5290 10012 c0 -5 14 -18 30 -30 17 -13 30 -21 30 -19 0 2 -13 16
-30 30 -16 15 -30 23 -30 19z"/>
<path d="M5430 9881 c36 -38 67 -67 69 -64 5 4 -120 133 -129 133 -3 0 24 -31
60 -69z"/>
<path d="M6190 9793 c0 -12 4 -32 10 -45 5 -13 30 -90 55 -173 84 -272 156
-488 201 -598 54 -129 95 -219 100 -214 2 2 -8 28 -22 57 -28 57 -59 144 -93
255 -30 101 -91 328 -88 331 1 1 39 -41 85 -94 86 -102 219 -240 268 -281 71
-58 73 -50 4 19 -154 152 -365 445 -441 610 -24 52 -51 109 -61 125 -16 27
-18 28 -18 8z"/>
<path d="M2262 9655 c0 -16 2 -22 5 -12 2 9 2 23 0 30 -3 6 -5 -1 -5 -18z"/>
<path d="M8260 9624 c0 -8 9 -14 19 -14 30 0 34 17 6 22 -17 4 -25 1 -25 -8z"/>
<path d="M7301 9485 c12 -27 34 -77 48 -110 15 -33 34 -74 41 -92 8 -17 19
-29 24 -26 5 4 7 -1 3 -10 -7 -19 229 -644 240 -634 6 6 -115 354 -140 404
-14 26 -37 80 -52 118 -15 39 -32 76 -38 83 -5 7 -7 15 -4 18 3 4 23 -31 45
-77 54 -116 202 -338 202 -304 0 11 -22 49 -97 162 -70 107 -116 189 -225 403
-55 106 -81 142 -47 65z"/>
<path d="M2253 9400 c0 -25 2 -35 4 -22 2 12 2 32 0 45 -2 12 -4 2 -4 -23z"/>
<path d="M6110 9425 c0 -5 5 -17 10 -25 5 -8 10 -10 10 -5 0 6 -5 17 -10 25
-5 8 -10 11 -10 5z"/>
<path d="M6130 9377 c0 -10 49 -100 49 -91 1 12 -38 94 -44 94 -3 0 -5 -1 -5
-3z"/>
<path d="M7535 9309 c12 -56 85 -260 106 -298 24 -42 20 -31 -32 108 -22 56
-43 124 -46 149 -4 26 -13 53 -21 61 -13 13 -13 11 -7 -20z"/>
<path d="M3092 9230 c-3 -174 55 -660 133 -1130 19 -113 50 -302 70 -421 35
-214 83 -416 132 -559 139 -406 352 -843 481 -985 108 -120 87 -123 -40 -6
-177 164 -298 340 -471 687 -104 207 -155 323 -192 432 -15 46 -29 82 -31 79
-3 -3 -4 -331 -3 -602 0 -22 40 -243 65 -365 37 -173 149 -556 206 -700 60
-151 168 -350 228 -420 l22 -25 -20 35 c-207 362 -288 594 -333 954 -13 109
-7 537 9 591 l9 30 11 -25 c11 -27 169 -291 243 -405 25 -38 83 -116 128 -173
77 -95 84 -107 92 -165 12 -82 23 -145 43 -242 8 -44 34 -208 56 -365 74 -523
87 -568 197 -677 36 -35 59 -63 54 -63 -25 0 -243 117 -336 181 -190 129 -316
245 -458 423 -51 64 -74 82 -64 50 3 -11 20 -68 37 -129 17 -60 47 -146 67
-190 19 -44 45 -102 57 -130 42 -98 45 -98 46 -8 0 45 4 85 10 88 5 3 10 14
10 23 1 49 17 45 115 -29 53 -41 124 -93 158 -117 34 -23 61 -47 60 -52 -2 -6
3 -10 10 -10 28 0 35 -38 36 -225 2 -290 -45 -715 -154 -1380 -41 -248 -54
-339 -75 -503 -62 -485 -194 -868 -416 -1202 -71 -107 -232 -287 -244 -273
-13 15 -52 244 -45 270 3 14 30 51 59 82 90 96 238 317 316 472 17 32 53 133
80 225 139 461 149 739 45 1364 -24 145 -45 302 -66 500 -6 58 -17 141 -25
185 -66 369 -84 489 -84 569 l0 89 20 -23 c11 -13 20 -28 20 -34 0 -6 4 -5 9
3 6 9 11 10 15 2 4 -6 4 -15 1 -21 -3 -6 -2 -10 4 -10 5 0 28 -37 51 -82 51
-101 157 -265 217 -335 52 -60 126 -113 160 -113 33 0 28 12 -18 40 -48 29
-135 128 -196 222 -104 160 -199 371 -278 618 -41 126 -61 166 -146 280 -128
174 -292 441 -364 595 -110 236 -250 613 -294 790 -65 266 -182 1013 -210
1345 -14 171 -31 416 -40 590 l-8 145 -2 -105 c-2 -177 23 -594 50 -805 35
-290 83 -644 105 -780 44 -279 46 -298 40 -386 -13 -173 -108 -485 -216 -704
-68 -139 -159 -286 -259 -420 -55 -74 -231 -258 -238 -251 -3 3 10 26 27 52
57 82 164 374 210 570 48 204 89 504 110 791 11 158 24 329 30 378 6 50 17
171 25 270 13 149 36 324 60 455 13 69 -10 -15 -50 -184 -55 -232 -113 -378
-242 -615 -174 -317 -273 -464 -446 -663 -33 -38 -54 -68 -48 -68 6 0 11 3 11
8 0 4 23 30 50 57 28 28 64 69 81 93 17 23 34 40 40 37 5 -4 6 2 2 12 -3 10
-3 15 2 11 4 -4 20 12 35 35 15 23 37 51 48 61 12 11 22 24 22 31 0 6 7 20 16
31 14 18 14 18 3 -6 -11 -23 -11 -24 4 -11 10 7 17 24 17 38 0 13 4 22 9 19 5
-4 20 7 33 23 22 25 26 27 36 12 10 -14 11 -13 5 4 -4 11 -10 22 -14 25 -4 3
0 14 8 25 15 20 15 20 8 -2 -5 -19 -2 -23 14 -23 12 0 21 -4 21 -9 0 -5 16 -9
35 -9 28 0 35 4 35 19 0 25 8 24 31 -3 17 -18 24 -45 20 -70 0 -5 4 -8 10 -8
8 0 10 -14 5 -42 -5 -42 -5 -42 7 -13 9 19 16 25 21 17 4 -7 2 -12 -3 -12 -12
0 -15 -58 -5 -84 3 -9 10 -13 15 -10 12 7 11 -10 -11 -181 -48 -376 -134 -707
-232 -897 -11 -21 -16 -38 -13 -38 4 0 -6 -17 -22 -37 -16 -21 -35 -50 -42
-65 -8 -15 -18 -25 -23 -22 -5 3 -8 -1 -6 -10 5 -25 -90 -102 -187 -151 -87
-44 -82 -50 17 -19 58 19 235 135 307 203 30 28 58 48 64 44 6 -3 7 -2 4 4 -3
5 10 27 29 49 20 21 56 68 82 104 25 36 51 68 58 72 6 4 15 19 18 33 4 14 13
25 21 25 7 0 17 9 20 21 4 11 9 18 13 15 3 -4 14 6 24 21 11 17 27 28 40 28
19 0 23 5 21 30 -1 17 1 22 3 12 3 -9 10 -14 16 -11 6 4 8 -1 5 -12 -3 -11
-13 -57 -22 -104 -9 -47 -20 -101 -25 -120 -4 -19 -18 -98 -30 -175 -12 -77
-32 -206 -46 -286 -40 -244 -25 -219 31 51 29 140 66 314 83 385 17 72 36 159
42 195 19 117 33 170 43 170 6 0 7 -102 2 -292 -9 -313 -7 -644 5 -798 7 -89
7 -91 9 -30 2 71 5 97 49 455 17 132 33 277 37 323 4 45 11 84 15 87 4 2 13
-17 20 -43 42 -161 142 -461 186 -562 98 -225 223 -550 260 -675 9 -33 27
-107 39 -165 l23 -105 -1 265 c0 146 6 356 12 467 6 111 9 240 6 288 -6 96 6
107 25 23 7 -29 37 -123 67 -208 76 -214 88 -257 117 -400 32 -160 43 -246 56
-451 20 -302 -13 -574 -100 -829 -28 -80 -50 -149 -50 -155 0 -19 32 37 57 98
97 242 139 493 131 794 -2 91 0 157 3 146 4 -10 19 -67 33 -128 15 -60 40
-155 56 -210 43 -145 72 -286 65 -315 -7 -26 -165 -303 -240 -420 -23 -36 -44
-70 -46 -75 -2 -6 -36 -65 -76 -130 -71 -119 -102 -199 -104 -275 -3 -94 -11
-89 -76 46 -83 174 -151 327 -159 358 -3 15 -10 29 -15 32 -25 15 88 -261 188
-461 137 -274 226 -407 388 -575 96 -100 96 -135 0 -80 -124 71 -292 231 -449
428 -32 40 -60 71 -63 68 -3 -3 7 -27 22 -53 16 -26 51 -88 79 -138 l51 -90
-3 -260 c-5 -391 18 -631 88 -923 38 -154 77 -258 139 -360 61 -102 76 -121
168 -214 42 -43 72 -78 67 -78 -23 0 -233 73 -308 107 -175 79 -421 247 -546
373 -190 191 -294 354 -403 630 -70 178 -104 304 -146 545 -8 46 -9 43 -10
-45 -1 -52 -8 -185 -16 -295 -18 -237 -18 -698 -2 -842 7 -57 11 -103 10 -103
-9 0 -34 69 -56 150 -37 134 -73 341 -89 505 -22 234 -13 900 18 1275 3 46 2
61 -5 50 -6 -8 -11 -33 -11 -55 0 -22 -4 -56 -9 -75 -5 -19 -12 -51 -14 -70
-4 -34 -36 -113 -78 -195 -28 -54 -62 -142 -120 -312 -45 -133 -60 -188 -123
-456 -25 -100 -104 -492 -145 -717 -26 -141 -52 -252 -57 -247 -2 2 0 48 6
103 19 182 38 388 45 479 32 452 104 1078 145 1259 6 27 9 51 7 53 -8 7 -37
-133 -73 -347 -37 -224 -55 -358 -79 -610 -50 -527 -64 -638 -95 -785 -51
-240 -101 -518 -124 -683 -15 -101 -26 -185 -26 -188 0 -2 107 -4 238 -4 l237
0 79 193 c89 216 212 494 254 577 41 78 56 74 113 -29 25 -46 64 -101 86 -122
60 -55 185 -88 212 -56 15 19 4 27 -34 27 -52 0 -128 28 -163 59 -18 17 -49
65 -69 106 -32 67 -36 86 -37 158 -1 77 1 86 37 151 61 111 145 234 167 246
17 9 23 6 40 -22 11 -18 26 -45 33 -61 6 -15 15 -27 19 -27 5 0 8 -5 8 -10 0
-12 12 -29 55 -73 17 -17 29 -37 27 -45 -2 -8 1 -11 7 -7 6 3 11 -1 11 -11 0
-10 3 -15 6 -11 8 8 44 -25 44 -41 0 -7 5 -10 12 -6 7 5 9 2 5 -9 -4 -11 -2
-14 8 -11 8 3 21 -6 31 -21 9 -14 27 -31 40 -38 l24 -12 -23 -27 c-12 -14 -30
-36 -39 -47 -10 -11 -27 -40 -39 -63 -25 -50 -55 -91 -120 -168 -51 -61 -377
-546 -397 -592 -2 -5 224 -8 502 -8 430 0 506 2 506 14 0 8 -3 16 -7 18 -14 6
-99 121 -165 223 -86 133 -180 315 -252 487 -15 35 -14 37 16 83 17 26 37 49
43 51 7 3 28 -9 46 -26 19 -18 68 -54 109 -82 108 -73 117 -83 172 -193 63
-124 333 -533 359 -543 5 -2 9 -10 9 -18 0 -12 279 -14 1981 -14 l1981 0 -5
23 c-14 56 -18 264 -8 397 16 206 95 544 171 735 73 183 205 442 289 569 26
39 50 78 55 86 4 8 -73 -66 -171 -165 -168 -170 -283 -306 -383 -455 -63 -93
-184 -342 -246 -505 -57 -148 -64 -157 -38 -44 39 171 195 558 314 780 97 180
237 407 345 560 75 106 85 125 124 250 24 73 52 159 62 189 20 55 174 358 234
460 18 30 76 132 130 225 54 94 127 215 163 269 72 112 296 427 352 496 59 72
345 453 425 566 41 57 102 152 136 211 34 59 70 119 79 133 10 14 35 59 55
100 21 41 56 102 78 135 23 33 54 87 70 119 26 55 74 119 202 271 55 65 134
148 121 128 -20 -34 32 -2 205 128 48 35 95 69 105 75 11 7 16 15 12 19 -4 4
-13 3 -20 -2 -7 -5 -35 -18 -63 -27 -27 -10 -55 -25 -62 -33 -7 -9 -19 -13
-27 -10 -9 4 -15 1 -13 -5 1 -6 -4 -13 -10 -15 -23 -8 -13 16 29 73 27 35 84
87 153 139 60 45 151 118 200 161 124 109 200 172 267 223 79 59 240 229 336
353 44 56 90 112 102 123 22 20 140 188 140 200 0 11 -20 -13 -170 -200 -130
-160 -325 -370 -420 -451 -180 -153 -473 -377 -600 -458 -140 -90 -385 -220
-515 -275 -65 -27 -395 -99 -488 -107 l-72 -5 75 26 c131 46 260 120 376 214
64 53 149 110 207 141 281 147 610 395 874 658 141 141 404 475 512 652 62
102 271 515 271 535 -1 6 -31 -51 -69 -125 -201 -399 -319 -580 -572 -880
-252 -300 -650 -628 -939 -775 -41 -21 -85 -48 -97 -58 -43 -39 -35 -8 9 37
25 25 52 60 61 78 8 18 41 87 72 153 66 138 114 273 146 407 12 51 34 134 50
184 15 50 37 154 48 230 36 246 51 279 240 498 61 71 109 132 106 135 -4 3 -9
0 -13 -6 -20 -32 -152 -175 -281 -304 -192 -191 -336 -313 -558 -471 -101 -72
-183 -132 -183 -134 0 -8 135 70 275 160 92 59 178 124 244 185 144 134 137
131 144 70 10 -84 -22 -286 -56 -358 -11 -24 -17 -26 -93 -29 -44 -1 -91 1
-104 6 -27 10 -47 -8 -235 -211 -55 -60 -143 -141 -195 -180 -52 -39 -97 -74
-100 -77 -5 -7 -109 -76 -145 -97 -47 -28 -441 -220 -570 -278 -266 -119 -729
-262 -1289 -396 -357 -86 -578 -129 -667 -129 -103 0 -132 17 -368 214 -192
160 -288 236 -576 456 -592 453 -767 610 -941 845 -80 107 -115 165 -160 258
-30 65 -35 80 -23 88 12 7 12 9 -1 10 -8 1 -25 0 -38 -1 -25 -2 -170 73 -247
128 -49 35 -169 146 -297 274 -126 126 -267 322 -364 503 -26 50 -55 101 -64
115 -26 39 -85 184 -124 305 -87 269 -123 437 -154 720 l-9 80 -1 -65z m368
-1303 c0 -7 -4 -6 -11 3 -9 13 -10 13 -6 0 2 -8 10 -14 18 -13 8 1 30 -19 49
-45 51 -68 124 -157 194 -234 49 -55 61 -75 63 -105 1 -21 7 -74 13 -118 5
-44 12 -141 15 -215 2 -74 9 -198 15 -275 14 -195 39 -639 36 -642 -3 -3 -147
257 -191 345 -31 64 -136 318 -172 417 -13 39 -43 135 -65 215 -38 134 -41
156 -44 290 -2 80 2 172 7 205 6 33 12 67 13 75 1 8 8 25 14 37 7 12 12 33 12
47 0 13 6 26 13 29 16 6 27 -1 27 -16z m403 -459 c13 -13 26 -30 29 -39 3 -8
-5 -78 -18 -155 -13 -76 -23 -161 -24 -188 0 -27 -3 -47 -6 -44 -6 6 -14 448
-8 448 1 0 14 -10 27 -22z m140 -121 l44 -42 7 -150 c3 -83 2 -231 -4 -329
-10 -189 -11 -196 -41 -346 -10 -52 -23 -140 -29 -195 -13 -127 -18 -147 -31
-139 -49 30 -79 245 -80 569 -1 192 2 240 25 380 33 200 52 295 61 295 2 0 24
-19 48 -43z m190 -119 c104 -59 104 -59 148 -148 18 -35 66 -114 107 -175 106
-158 189 -249 427 -470 72 -66 161 -149 198 -185 l69 -65 -4 -77 c-6 -106 -45
-183 -110 -215 -52 -26 -228 -79 -438 -133 -80 -20 -170 -46 -200 -57 -30 -11
-116 -35 -190 -52 -74 -17 -156 -37 -182 -45 l-47 -15 -7 32 c-6 29 -13 367
-7 367 1 0 26 -19 55 -43 75 -60 170 -118 264 -160 45 -21 85 -37 89 -37 5 0
-30 23 -76 51 -94 57 -160 105 -234 173 -27 25 -53 46 -56 46 -9 0 -1 82 36
345 53 381 59 446 59 687 1 126 2 228 4 228 1 0 44 -23 95 -52z m-2186 -180
c-3 -8 -6 -5 -6 6 -1 11 2 17 5 13 3 -3 4 -12 1 -19z m-219 -64 c-7 -15 -14
-21 -16 -15 -2 7 2 18 8 26 18 22 21 18 8 -11z m229 4 c-3 -8 -6 -5 -6 6 -1
11 2 17 5 13 3 -3 4 -12 1 -19z m29 -159 c-14 -34 -14 -34 -15 -6 -1 15 4 27
9 27 6 0 10 8 11 18 0 9 3 12 5 6 3 -7 -2 -27 -10 -45z m444 -16 c-11 -17 -11
-17 -6 0 3 10 7 26 7 35 1 15 2 15 6 0 2 -10 -1 -25 -7 -35z m2823 -747 c37
-31 67 -60 67 -64 0 -4 -46 -20 -102 -36 -57 -16 -111 -33 -120 -38 -23 -11
-23 -2 1 70 11 32 23 81 27 110 l7 52 26 -19 c14 -11 56 -45 94 -75z m3861 -3
c-7 -49 -13 -135 -13 -193 -1 -92 5 -136 36 -267 6 -27 -41 -55 -197 -117 -88
-34 -139 -48 -220 -57 -98 -12 -102 -13 -65 -22 54 -12 335 0 410 18 33 7 61
13 62 11 1 -1 -63 -47 -142 -101 -178 -123 -366 -223 -595 -314 -396 -159
-587 -202 -973 -222 -243 -13 -376 -5 -510 33 -100 27 -127 45 -127 83 0 17
-9 63 -20 103 -23 82 -25 111 -5 67 14 -30 14 -30 16 -5 1 20 3 18 13 -14 7
-22 18 -42 25 -44 11 -4 11 -6 0 -13 -11 -8 -11 -11 4 -20 9 -6 15 -15 12 -20
-4 -5 -11 -6 -17 -3 -7 4 -8 2 -4 -4 4 -7 2 -12 -3 -12 -6 0 -11 -5 -11 -11 0
-6 17 -1 38 11 20 13 53 32 72 43 19 11 49 28 65 38 17 10 129 73 250 141 121
68 228 127 237 133 10 5 55 30 100 54 46 24 94 51 108 61 14 9 50 30 80 47
155 84 252 140 320 184 72 46 378 198 430 214 30 9 82 32 220 97 58 27 125 58
150 69 25 11 88 42 140 69 131 68 129 69 114 -37z m-5267 -35 c-3 -8 -6 -5 -6
6 -1 11 2 17 5 13 3 -3 4 -12 1 -19z m6013 -376 c0 -8 -11 -23 -60 -80 -33
-39 -23 -13 16 39 36 49 44 57 44 41z m-3130 -511 c0 -9 -7 -3 -15 13 -19 36
-19 47 0 22 8 -11 15 -27 15 -35z m2629 -28 c-40 -48 -211 -201 -284 -254 -81
-59 -253 -163 -340 -206 -110 -55 -218 -81 -350 -84 -93 -2 -107 -1 -101 10 3
4 17 6 30 4 52 -10 229 18 320 52 212 76 450 232 666 434 41 39 76 70 78 71 2
0 -7 -12 -19 -27z m-6065 -128 c3 -8 1 -15 -4 -15 -6 0 -10 7 -10 15 0 8 2 15
4 15 2 0 6 -7 10 -15z m4951 -395 c13 -5 14 -9 5 -9 -8 0 -24 4 -35 9 -13 5
-14 9 -5 9 8 0 24 -4 35 -9z m-4932 -340 c3 -11 1 -20 -4 -20 -5 0 -9 9 -9 20
0 11 2 20 4 20 2 0 6 -9 9 -20z m-63 -2175 c35 -18 36 -23 13 -69 -27 -59 -70
-55 -59 5 3 14 0 31 -6 37 -12 12 -4 42 12 42 6 0 24 -7 40 -15z m460 -46 c91
-22 244 -63 340 -91 96 -27 227 -63 290 -79 319 -82 991 -295 1725 -547 477
-164 895 -325 895 -345 0 -11 -73 -204 -80 -211 -17 -17 -102 12 -935 312
-770 277 -2077 693 -2410 767 -41 9 -75 20 -75 24 0 6 49 155 65 199 6 16 -1
17 185 -29z m3460 -1148 c76 -22 79 -25 70 -68 -22 -116 -46 -203 -56 -203
-29 0 -234 94 -234 107 0 20 67 163 86 184 13 14 21 15 47 7 18 -6 57 -18 87
-27z"/>
<path d="M6186 9257 c3 -10 9 -15 12 -12 3 3 0 11 -7 18 -10 9 -11 8 -5 -6z"/>
<path d="M2263 9075 c0 -22 2 -30 4 -17 2 12 2 30 0 40 -3 9 -5 -1 -4 -23z"/>
<path d="M6900 8880 c30 -29 127 -115 215 -192 88 -78 183 -162 210 -187 67
-62 193 -163 230 -185 33 -19 29 -16 -125 114 -76 64 -233 205 -340 304 -67
63 -152 133 -205 170 -34 23 -32 20 15 -24z"/>
<path d="M3461 8886 c-1 -13 47 -151 69 -201 10 -22 34 -75 54 -119 20 -43 36
-83 36 -88 0 -6 6 -24 14 -41 97 -216 210 -506 257 -659 44 -141 68 -203 94
-233 16 -20 16 -20 5 3 -11 22 -12 137 -1 157 3 6 7 25 8 44 2 32 23 71 23 43
0 -7 6 -12 13 -12 6 0 24 -20 38 -44 21 -34 24 -47 15 -56 -8 -10 -8 -11 0 -7
12 7 17 -11 30 -98 4 -22 10 -42 13 -45 15 -11 49 -180 36 -180 -3 0 -32 24
-62 53 -42 38 -51 44 -35 21 41 -59 266 -244 280 -230 2 2 -12 37 -32 78 -42
87 -79 233 -106 416 -11 73 -20 138 -20 143 0 11 30 -3 52 -24 7 -7 27 -20 43
-30 38 -23 -82 91 -150 142 -57 44 -200 190 -264 271 -123 154 -298 453 -399
680 -6 14 -11 21 -11 16z"/>
<path d="M5535 8793 c-31 -47 -33 -64 -2 -26 23 27 41 63 32 63 -2 0 -16 -17
-30 -37z"/>
<path d="M4935 8762 c10 -15 30 -40 47 -55 33 -33 32 -46 -3 -64 -20 -11 -8
-13 86 -13 l110 1 -51 17 c-55 19 -150 87 -159 113 -3 9 -15 19 -26 22 -20 5
-20 5 -4 -21z"/>
<path d="M3864 8615 c4 -11 25 -50 48 -88 22 -37 64 -132 93 -212 32 -86 70
-168 93 -202 22 -32 62 -94 90 -138 28 -44 70 -98 93 -120 l41 -40 -37 50
c-77 101 -131 259 -122 353 6 53 6 53 -52 120 -32 37 -66 74 -76 82 -10 8 -37
41 -61 72 -60 81 -118 147 -110 123z"/>
<path d="M5378 8613 c7 -3 16 -2 19 1 4 3 -2 6 -13 5 -11 0 -14 -3 -6 -6z"/>
<path d="M13445 8523 c15 -24 29 -43 30 -43 11 0 -12 43 -32 62 l-26 23 28
-42z"/>
<path d="M9346 8335 c4 -8 10 -15 15 -15 5 0 9 7 9 15 0 8 -7 15 -15 15 -9 0
-12 -6 -9 -15z"/>
<path d="M4332 8215 c18 -22 41 -51 50 -64 10 -14 20 -22 23 -20 3 3 -20 32
-51 65 -31 32 -41 41 -22 19z"/>
<path d="M8604 8114 c4 -11 2 -15 -8 -11 -10 4 -13 1 -9 -9 9 -25 41 -17 41
11 0 15 -6 25 -15 25 -10 0 -13 -6 -9 -16z"/>
<path d="M8510 8072 c0 -9 75 -42 94 -42 8 0 18 -4 21 -10 8 -12 35 -13 35 -1
0 5 -21 17 -47 26 -79 28 -103 34 -103 27z"/>
<path d="M2855 8025 c15 -95 17 -99 27 -82 6 11 4 32 -3 59 -17 59 -32 73 -24
23z"/>
<path d="M8868 7933 c7 -3 16 -2 19 1 4 3 -2 6 -13 5 -11 0 -14 -3 -6 -6z"/>
<path d="M8990 7886 c0 -15 48 -36 68 -29 19 7 14 19 -13 31 -35 16 -55 15
-55 -2z"/>
<path d="M705 7780 c-3 -5 -1 -10 4 -10 6 0 11 5 11 10 0 6 -2 10 -4 10 -3 0
-8 -4 -11 -10z"/>
<path d="M610 7760 c0 -6 -5 -8 -12 -4 -10 6 -9 3 0 -8 14 -18 45 -13 39 5 -5
15 -27 21 -27 7z"/>
<path d="M6001 7745 c-1 -11 -4 -31 -6 -45 l-6 -25 11 25 c6 13 9 33 7 45 -4
19 -4 19 -6 0z"/>
<path d="M518 7723 c7 -3 16 -2 19 1 4 3 -2 6 -13 5 -11 0 -14 -3 -6 -6z"/>
<path d="M9678 7606 c-105 -99 -158 -159 -132 -149 11 4 36 23 57 42 20 19 44
39 53 44 33 19 -180 -375 -284 -523 -245 -348 -609 -599 -931 -640 -63 -9 -63
-9 24 -5 108 5 185 24 282 70 65 30 210 117 223 134 3 3 43 40 90 81 289 254
449 473 654 898 32 67 57 124 55 126 -2 2 -43 -33 -91 -78z"/>
<path d="M10299 7573 c-13 -16 -12 -17 4 -4 9 7 17 15 17 17 0 8 -8 3 -21 -13z"/>
<path d="M1700 7508 c0 -36 4 -35 14 5 4 16 2 27 -4 27 -5 0 -10 -14 -10 -32z"/>
<path d="M4006 7505 c4 -8 11 -15 16 -15 6 0 5 6 -2 15 -7 8 -14 15 -16 15 -2
0 -1 -7 2 -15z"/>
<path d="M4030 7470 c0 -5 5 -10 11 -10 5 0 7 5 4 10 -3 6 -8 10 -11 10 -2 0
-4 -4 -4 -10z"/>
<path d="M6030 6706 c0 -30 93 -133 155 -171 22 -14 15 -1 -31 51 -33 38 -71
84 -83 102 -24 34 -41 42 -41 18z"/>
<path d="M7050 6532 c-8 -2 -25 -14 -37 -24 -12 -11 -62 -31 -110 -44 -85 -24
-86 -24 -30 -18 89 9 189 37 201 56 12 21 -1 38 -24 30z"/>
<path d="M1226 6366 c-80 -78 -255 -216 -273 -216 -6 0 -17 -7 -24 -16 -12
-14 -9 -14 26 0 83 35 151 84 256 187 60 58 109 109 109 112 0 18 -24 1 -94
-67z"/>
<path d="M14880 6305 c0 -11 11 -15 40 -15 29 0 40 4 40 15 0 11 -11 15 -40
15 -29 0 -40 -4 -40 -15z"/>
<path d="M14376 6037 c3 -10 9 -15 12 -12 3 3 0 11 -7 18 -10 9 -11 8 -5 -6z"/>
<path d="M2091 5094 c0 -11 3 -14 6 -6 3 7 2 16 -1 19 -3 4 -6 -2 -5 -13z"/>
<path d="M14575 5070 c10 -11 20 -20 23 -20 3 0 -3 9 -13 20 -10 11 -20 20
-23 20 -3 0 3 -9 13 -20z"/>
<path d="M1997 4573 c-3 -21 -17 -108 -31 -193 -30 -193 -41 -291 -61 -550 -9
-113 -22 -244 -30 -292 -13 -82 -18 -93 -90 -202 -51 -77 -94 -159 -131 -247
-30 -73 -53 -134 -50 -136 2 -2 16 27 32 64 51 120 189 333 215 333 5 0 9 -7
9 -15 0 -8 4 -15 9 -15 4 0 11 33 14 73 3 39 13 158 22 264 8 106 24 268 35
360 27 227 57 476 66 541 7 59 0 72 -9 15z"/>
<path d="M14055 3991 c-3 -5 -1 -12 5 -16 5 -3 10 -17 10 -31 0 -13 4 -24 8
-24 4 0 16 -13 25 -30 23 -38 41 -39 33 -2 -21 87 -60 137 -81 103z"/>
<path d="M14854 3814 c-5 -19 -2 -29 9 -35 9 -5 13 -18 11 -31 -2 -13 -2 -17
2 -10 9 19 24 14 24 -8 0 -11 5 -20 10 -20 6 0 10 -11 10 -24 0 -30 37 -96 53
-96 8 0 9 -3 1 -8 -16 -11 -25 -42 -11 -39 7 1 15 7 19 12 5 6 8 4 8 -5 0 -9
-5 -21 -12 -28 -9 -9 -9 -15 0 -24 9 -9 12 -8 12 6 0 9 5 14 10 11 6 -3 10
-16 10 -29 0 -12 3 -26 8 -30 4 -4 7 -13 7 -19 0 -7 7 -12 15 -12 17 0 60 -40
60 -55 0 -15 -11 -12 -26 7 -18 26 -26 11 -8 -15 12 -18 19 -20 35 -12 16 9
19 7 19 -14 0 -14 5 -28 10 -31 6 -4 8 -11 5 -16 -4 -5 -2 -9 4 -9 14 0 41
-53 41 -80 0 -12 4 -19 9 -15 15 9 24 -60 12 -84 -9 -16 -9 -29 2 -54 8 -17
20 -48 27 -67 16 -43 48 -80 69 -80 14 1 14 3 -1 14 -10 7 -18 26 -18 43 0 17
-7 36 -15 43 -11 9 -12 17 -6 23 7 7 2 16 -15 29 -26 21 -31 38 -11 38 23 0
56 -46 50 -69 -7 -27 14 -28 22 -1 6 19 -68 177 -179 381 -119 220 -151 277
-171 304 -12 17 -25 40 -29 53 -4 12 -11 22 -15 22 -5 0 -14 14 -21 30 -15 37
-28 38 -36 4z"/>
<path d="M14150 3805 c0 -9 7 -18 15 -21 8 -4 12 -10 9 -15 -3 -5 2 -9 10 -9
21 0 20 10 -3 38 -22 26 -31 28 -31 7z"/>
<path d="M14880 3695 c0 -8 5 -15 10 -15 6 0 10 7 10 15 0 8 -4 15 -10 15 -5
0 -10 -7 -10 -15z"/>
<path d="M11411 3674 c0 -11 3 -14 6 -6 3 7 2 16 -1 19 -3 4 -6 -2 -5 -13z"/>
<path d="M14880 3655 c0 -2 10 -10 23 -16 20 -11 21 -11 8 4 -13 16 -31 23
-31 12z"/>
<path d="M11401 3634 c0 -11 3 -14 6 -6 3 7 2 16 -1 19 -3 4 -6 -2 -5 -13z"/>
<path d="M11388 3605 c-3 -6 -16 -41 -28 -80 -131 -402 -288 -713 -482 -952
-126 -156 -359 -398 -458 -477 -24 -19 -27 -24 -10 -15 67 33 257 217 397 384
41 50 93 110 115 135 54 62 58 68 58 79 0 5 7 12 16 15 10 4 13 2 7 -7 -4 -6
-8 -16 -9 -22 -1 -5 -19 -66 -39 -135 -21 -69 -54 -191 -75 -271 -70 -268
-125 -413 -276 -728 -47 -96 -82 -180 -80 -185 3 -7 5 -6 5 2 1 6 54 51 118
99 152 112 194 151 266 248 95 127 128 205 205 480 42 148 102 488 122 690 12
126 26 230 33 255 8 33 31 108 49 162 10 32 18 70 18 86 0 15 4 32 8 38 5 5
14 36 21 69 7 33 17 72 23 87 10 26 7 61 -4 43z"/>
<path d="M9610 3430 c0 -5 5 -10 11 -10 5 0 7 5 4 10 -3 6 -8 10 -11 10 -2 0
-4 -4 -4 -10z"/>
<path d="M1514 3236 c-44 -44 -117 -152 -160 -238 -35 -69 -32 -66 71 87 48
72 99 142 113 157 41 44 21 39 -24 -6z"/>
<path d="M1862 3260 c0 -14 2 -19 5 -12 2 6 2 18 0 25 -3 6 -5 1 -5 -13z"/>
<path d="M15166 3162 c-2 -4 1 -18 8 -31 8 -15 16 -20 20 -13 4 7 2 21 -4 32
-12 22 -16 24 -24 12z"/>
<path d="M2997 3130 c-4 -14 -6 -52 -6 -85 l2 -60 9 70 c9 75 7 117 -5 75z"/>
<path d="M1367 3101 c-20 -22 -33 -42 -28 -46 5 -3 13 4 16 16 6 17 9 19 16 8
7 -12 9 -12 9 0 0 8 7 19 16 26 9 6 15 17 13 24 -3 7 -20 -4 -42 -28z"/>
<path d="M15310 2986 c0 -14 -5 -26 -12 -26 -6 0 -1 -12 13 -27 21 -23 24 -34
19 -63 -5 -27 -8 -31 -14 -17 -5 9 -12 17 -17 17 -12 0 -1 -44 26 -105 13 -27
25 -57 28 -65 3 -8 6 1 6 20 1 20 -5 42 -11 48 -10 10 -10 15 2 22 11 7 11 10
2 10 -9 0 -10 5 -2 19 16 31 13 108 -5 115 -9 3 -15 18 -15 35 0 16 -4 33 -10
36 -6 4 -10 -5 -10 -19z"/>
<path d="M1310 2920 c-6 -11 -8 -20 -6 -20 3 0 10 9 16 20 6 11 8 20 6 20 -3
0 -10 -9 -16 -20z"/>
<path d="M1207 2737 c-36 -67 -69 -131 -73 -142 l-6 -20 14 20 c22 30 140 257
135 261 -2 2 -33 -52 -70 -119z"/>
<path d="M1505 2670 c-4 -17 -5 -34 -2 -36 2 -3 7 10 11 27 8 42 0 50 -9 9z"/>
<path d="M9255 2674 c-9 -15 -12 -23 -6 -20 11 7 35 46 28 46 -3 0 -12 -12
-22 -26z"/>
<path d="M9211 2611 c-12 -16 -21 -33 -21 -37 0 -4 11 7 25 26 14 19 25 35 25
37 0 9 -11 0 -29 -26z"/>
<path d="M1113 2553 c-3 -10 -8 -22 -11 -27 -3 -5 0 -6 5 -3 11 7 25 47 17 47
-3 0 -7 -8 -11 -17z"/>
<path d="M1026 2380 c-26 -55 -46 -105 -44 -111 3 -10 12 6 72 145 43 98 23
73 -28 -34z"/>
<path d="M10790 2315 c0 -8 7 -15 15 -15 8 0 15 4 15 9 0 5 -7 11 -15 15 -9 3
-15 0 -15 -9z"/>
<path d="M7829 2273 l-24 -28 28 24 c15 14 27 26 27 28 0 8 -8 1 -31 -24z"/>
<path d="M967 2243 c-4 -3 -7 -11 -7 -17 0 -6 5 -5 12 2 6 6 9 14 7 17 -3 3
-9 2 -12 -2z"/>
<path d="M951 2194 c0 -11 3 -14 6 -6 3 7 2 16 -1 19 -3 4 -6 -2 -5 -13z"/>
<path d="M915 2128 c-11 -23 -20 -44 -21 -47 0 -3 -10 -26 -21 -51 -134 -297
-259 -694 -318 -1010 -18 -99 -41 -139 -140 -241 -100 -102 -215 -233 -215
-242 0 -5 12 6 27 24 34 41 85 96 203 219 l90 95 1 -95 c0 -123 16 -91 24 52
8 119 31 240 81 423 55 203 179 570 229 680 49 109 96 235 87 235 -4 0 -16
-19 -27 -42z"/>
<path d="M149 2077 c-79 -143 -149 -297 -149 -325 0 -24 3 -21 26 22 14 26 27
57 29 68 3 11 36 86 76 165 39 79 69 146 67 149 -3 2 -25 -33 -49 -79z"/>
<path d="M9936 1937 c-204 -206 -369 -357 -577 -529 -249 -207 -475 -349 -864
-545 -137 -69 -274 -141 -304 -160 -29 -19 -55 -32 -58 -29 -7 6 62 234 109
361 44 120 83 197 161 318 27 43 47 80 44 83 -2 3 -40 -37 -83 -88 -43 -51
-124 -145 -179 -208 -192 -219 -359 -455 -503 -710 -54 -96 -172 -386 -172
-422 0 -4 114 -8 254 -8 l254 0 7 83 c14 175 80 507 109 551 16 26 96 72 191
112 28 11 95 42 150 68 187 89 224 105 286 126 67 23 158 67 320 155 57 32
166 91 242 132 115 61 280 156 296 169 2 2 2 7 -2 10 -7 7 -113 -50 -422 -226
-225 -128 -452 -246 -460 -238 -3 2 26 22 63 43 283 165 556 376 932 719 117
107 394 391 414 424 22 36 -26 -7 -208 -191z m-2025 -1336 c24 -10 65 -26 92
-35 41 -16 47 -21 47 -47 0 -16 -5 -29 -11 -29 -6 0 -8 -11 -5 -27 3 -16 -1
-59 -7 -98 -11 -60 -16 -70 -32 -69 -20 2 -272 98 -282 107 -5 6 46 95 99 175
33 48 39 49 99 23z"/>
<path d="M173 1834 c-26 -41 -63 -95 -81 -120 -18 -24 -30 -44 -27 -44 3 0 -4
-10 -15 -22 -23 -25 -50 -75 -50 -92 0 -15 177 254 220 333 25 48 -2 16 -47
-55z"/>
<path d="M9635 1420 c-3 -5 -1 -10 4 -10 6 0 11 5 11 10 0 6 -2 10 -4 10 -3 0
-8 -4 -11 -10z"/>
<path d="M35 360 c-21 -22 -37 -42 -34 -44 2 -2 21 16 42 40 48 55 44 57 -8 4z"/>
<path d="M10320 191 c0 -10 19 -25 25 -20 1 2 -3 10 -11 17 -8 7 -14 8 -14 3z"/>
</g>
</svg>
